<?xml version="1.0" encoding="utf-8"?>
<!-- Generator: Adobe Illustrator 21.0.0, SVG Export Plug-In . SVG Version: 6.00 Build 0)  -->
<svg version="1.1" id="Camada_1" xmlns="http://www.w3.org/2000/svg" xmlns:xlink="http://www.w3.org/1999/xlink" x="0px" y="0px"
	 viewBox="0 0 300 242" style="enable-background:new 0 0 300 242;" xml:space="preserve">
<style type="text/css">
	.st0{fill-rule:evenodd;clip-rule:evenodd;fill:#FFFFFF;}
	.st1{fill-rule:evenodd;clip-rule:evenodd;fill:#146082;}
	.st2{fill-rule:evenodd;clip-rule:evenodd;fill:#ECC17D;}
	.st3{fill-rule:evenodd;clip-rule:evenodd;fill:#F5F1DC;}
	.st4{fill-rule:evenodd;clip-rule:evenodd;fill:#118B92;}
	.st5{fill-rule:evenodd;clip-rule:evenodd;fill:#16747A;}
	.st6{fill-rule:evenodd;clip-rule:evenodd;fill:#28A9B3;}
	.st7{fill-rule:evenodd;clip-rule:evenodd;fill:#E2C4A5;}
	.st8{fill-rule:evenodd;clip-rule:evenodd;fill:#F6DBA7;}
	.st9{fill-rule:evenodd;clip-rule:evenodd;fill:#38A9AB;}
	.st10{fill-rule:evenodd;clip-rule:evenodd;fill:#9B3B0F;}
	.st11{fill-rule:evenodd;clip-rule:evenodd;fill:#8F3E0B;}
	.st12{fill-rule:evenodd;clip-rule:evenodd;fill:#70310A;}
	.st13{fill-rule:evenodd;clip-rule:evenodd;fill:#F2715A;}
	.st14{fill-rule:evenodd;clip-rule:evenodd;fill:#E8E1CF;}
	.st15{fill-rule:evenodd;clip-rule:evenodd;fill:#22A7BC;}
	.st16{fill-rule:evenodd;clip-rule:evenodd;fill:#2EB0CC;}
	.st17{fill-rule:evenodd;clip-rule:evenodd;fill:#F7C012;}
	.st18{fill-rule:evenodd;clip-rule:evenodd;fill:#D6CAAB;}
	.st19{fill-rule:evenodd;clip-rule:evenodd;fill:#126F97;}
	.st20{fill-rule:evenodd;clip-rule:evenodd;fill:#1B88B7;}
	.st21{fill-rule:evenodd;clip-rule:evenodd;fill:#DCB875;}
	.st22{fill-rule:evenodd;clip-rule:evenodd;fill:#BD9A5A;}
	.st23{fill-rule:evenodd;clip-rule:evenodd;fill:#EBC984;}
	.st24{fill-rule:evenodd;clip-rule:evenodd;fill:#FBFAED;}
	.st25{fill-rule:evenodd;clip-rule:evenodd;fill:#A8A292;}
	.st26{fill-rule:evenodd;clip-rule:evenodd;fill:#F9AA11;}
	.st27{fill-rule:evenodd;clip-rule:evenodd;fill:#C0A266;}
</style>
<path class="st0" d="M124.5,38.4v1.1h-2.2v-1.1H124.5L124.5,38.4z M211.4,73.2v-0.4h-1.1v0.4H211.4L211.4,73.2z M211.4,71.8h-1.1
	v-2.2h1.1V71.8L211.4,71.8z M211.4,68.4h-1.1v-2.2h1.1V68.4L211.4,68.4z M211.4,65.1h-1.1v-2.2h1.1V65.1L211.4,65.1z M211.4,61.7
	h-1.1v-2.2h1.1V61.7L211.4,61.7z M211.4,58.4h-1.1v-2.2h1.1V58.4L211.4,58.4z M211.4,55h-1.1v-2.2h1.1V55L211.4,55z M211.4,51.7
	h-1.1v-2.2h1.1V51.7L211.4,51.7z M211.4,48.3h-1.1v-2.2h1.1V48.3L211.4,48.3z M211.4,45h-1.1v-1.6v0v0v0l0,0v0l0,0l0,0l0,0l0,0l0,0
	l0,0l0,0l0,0l0,0l0,0l0,0l0,0l0,0l0,0l0,0l0,0l0,0l0,0l0,0v0l1.1-0.2l0,0l0,0l0,0l0,0l0,0l0,0l0,0l0,0l0,0l0,0l0,0l0,0l0,0l0,0l0,0
	l0,0l0,0l0,0l0,0v0l0,0l0,0v0v0v0V45L211.4,45z M211,41.4c-0.4-0.8-0.8-1.4-1.5-2l-0.7,0.9c0.5,0.4,0.9,0.9,1.2,1.5L211,41.4
	L211,41.4z M208.4,38.8c-0.6-0.3-1.3-0.4-2-0.4H206v1.1h0.4c0.5,0,1,0.1,1.5,0.3L208.4,38.8L208.4,38.8z M204.9,38.4v1.1h-2.2v-1.1
	H204.9L204.9,38.4z M201.6,38.4v1.1h-2.2v-1.1H201.6L201.6,38.4z M198.2,38.4v1.1H196v-1.1H198.2L198.2,38.4z M194.9,38.4v1.1h-2.2
	v-1.1H194.9L194.9,38.4z M191.5,38.4v1.1h-2.2v-1.1H191.5L191.5,38.4z M188.2,38.4v1.1h-2.2v-1.1H188.2L188.2,38.4z M184.8,38.4v1.1
	h-2.2v-1.1H184.8L184.8,38.4z M181.5,38.4v1.1h-2.2v-1.1H181.5L181.5,38.4z M178.1,38.4v1.1h-2.2v-1.1H178.1L178.1,38.4z
	 M174.8,38.4v1.1h-2.2v-1.1H174.8L174.8,38.4z M171.4,38.4v1.1h-2.2v-1.1H171.4L171.4,38.4z M168.1,38.4v1.1h-2.2v-1.1H168.1
	L168.1,38.4z M164.7,38.4v1.1h-2.2v-1.1H164.7L164.7,38.4z M161.4,38.4v1.1h-2.2v-1.1H161.4L161.4,38.4z M158,38.4v1.1h-2.2v-1.1
	H158L158,38.4z M154.7,38.4v1.1h-2.2v-1.1H154.7L154.7,38.4z M151.3,38.4v1.1h-2.2v-1.1H151.3L151.3,38.4z M148,38.4v1.1h-2.2v-1.1
	H148L148,38.4z M144.6,38.4v1.1h-2.2v-1.1H144.6L144.6,38.4z M141.3,38.4v1.1H139v-1.1H141.3L141.3,38.4z M137.9,38.4v1.1h-2.2v-1.1
	H137.9L137.9,38.4z M134.6,38.4v1.1h-2.2v-1.1H134.6L134.6,38.4z M131.2,38.4v1.1H129v-1.1H131.2L131.2,38.4z M127.9,38.4v1.1h-2.2
	v-1.1H127.9z"/>
<g>
	<path class="st0" d="M61,155.7c0.4-0.7,0.6-1.6,0.6-2.4h-1.1c0,0.6-0.2,1.3-0.5,1.9L61,155.7L61,155.7z M18.6,105.9v0.5h1.1v-0.5
		H18.6L18.6,105.9z M18.6,107.5h1.1v2.2h-1.1V107.5L18.6,107.5z M18.6,110.8h1.1v2.2h-1.1V110.8L18.6,110.8z M18.6,114.2h1.1v2.2
		h-1.1V114.2L18.6,114.2z M18.6,117.5h1.1v2.2h-1.1V117.5L18.6,117.5z M18.6,120.9h1.1v2.2h-1.1V120.9L18.6,120.9z M18.6,124.2h1.1
		v2.2h-1.1V124.2L18.6,124.2z M18.6,127.6h1.1v2.2h-1.1V127.6L18.6,127.6z M18.6,130.9h1.1v2.2h-1.1V130.9L18.6,130.9z M18.6,134.3
		h1.1v2.2h-1.1V134.3L18.6,134.3z M18.6,137.6h1.1v2.2h-1.1V137.6L18.6,137.6z M18.6,141h1.1v2.2h-1.1V141L18.6,141z M18.6,144.3
		h1.1v2.2h-1.1V144.3L18.6,144.3z M18.6,147.7h1.1v2.2h-1.1V147.7L18.6,147.7z M18.6,151h1.1v2.2v0l-1.1,0v0V151L18.6,151z
		 M18.8,154.5c0.2,0.8,0.6,1.6,1.2,2.2l0.8-0.8c-0.5-0.5-0.8-1-0.9-1.7L18.8,154.5L18.8,154.5z M21,157.5c0.8,0.5,1.5,0.7,2.4,0.8
		l0.1-1.1c-0.7-0.1-1.2-0.2-1.8-0.6L21,157.5L21,157.5z M24.5,158.2v-1.1h2.2v1.1H24.5L24.5,158.2z M27.8,158.2v-1.1h2.2v1.1H27.8
		L27.8,158.2z M31.2,158.2v-1.1h2.2v1.1H31.2L31.2,158.2z M34.5,158.2v-1.1h2.2v1.1H34.5L34.5,158.2z M37.9,158.2v-1.1h2.2v1.1H37.9
		L37.9,158.2z M41.2,158.2v-1.1h2.2v1.1H41.2L41.2,158.2z M44.6,158.2v-1.1h2.2v1.1H44.6L44.6,158.2z M47.9,158.2v-1.1h2.2v1.1H47.9
		L47.9,158.2z M51.3,158.2v-1.1h2.2v1.1H51.3L51.3,158.2z M54.6,158.2v-1.1h2h0l0,0h0h0l0,0l0,0h0l0,0l0,0l0,0l0.1,1.1h0l0,0l0,0
		l0,0l0,0l0,0h0h0l0,0h0H54.6L54.6,158.2z M58.1,158c0.8-0.3,1.5-0.7,2.1-1.3l-0.8-0.8c-0.5,0.5-1,0.8-1.6,1L58.1,158z"/>
	<path class="st0" d="M54.4,78.7v-1.1h2.2v1.1H54.4L54.4,78.7z M19.7,105.2h-1.1V103h1.1V105.2L19.7,105.2z M19.7,101.8h-1.1v-2.2
		h1.1V101.8L19.7,101.8z M19.7,98.5h-1.1v-2.2h1.1V98.5L19.7,98.5z M19.7,95.2h-1.1v-2.2h1.1V95.2L19.7,95.2z M19.7,91.8h-1.1v-2.2
		h1.1V91.8L19.7,91.8z M19.7,88.5h-1.1v-2.2h1.1V88.5L19.7,88.5z M19.7,85.1h-1.1v-2.2h1.1V85.1L19.7,85.1z M19.8,81.9
		c0.1-0.6,0.4-1.2,0.8-1.7l-0.8-0.7c-0.5,0.6-0.9,1.4-1.1,2.2L19.8,81.9L19.8,81.9z M21.4,79.5c0.6-0.4,1.1-0.6,1.8-0.7l-0.1-1.1
		c-0.9,0.1-1.6,0.4-2.3,0.9L21.4,79.5L21.4,79.5z M24.2,78.7v-1.1h2.2v1.1H24.2L24.2,78.7z M27.6,78.7v-1.1h2.2v1.1H27.6L27.6,78.7z
		 M30.9,78.7v-1.1h2.2v1.1H30.9L30.9,78.7z M34.3,78.7v-1.1h2.2v1.1H34.3L34.3,78.7z M37.6,78.7v-1.1h2.2v1.1H37.6L37.6,78.7z
		 M41,78.7v-1.1h2.2v1.1H41L41,78.7z M44.3,78.7v-1.1h2.2v1.1H44.3L44.3,78.7z M47.7,78.7v-1.1h2.2v1.1H47.7L47.7,78.7z M51,78.7
		v-1.1h2.2v1.1H51z"/>
</g>
<g>
	
		<ellipse transform="matrix(0.5495 -0.8355 0.8355 0.5495 -24.8054 155.4557)" class="st1" cx="131.8" cy="100.7" rx="9.1" ry="9.1"/>
	<path class="st1" d="M123.9,84.7c1.3-0.7,2.8-1.1,4.2-1.4c4.5-0.9,9.3-0.1,13.4,2.6c4.1,2.7,6.8,6.8,7.7,11.3l0,0
		c0.3,1.5,0.4,2.9,0.4,4.4l-4-0.2c0.1-1.2,0-2.3-0.3-3.4l0,0c-0.7-3.5-2.8-6.7-6-8.8c-3.2-2.1-7-2.7-10.4-2
		c-1.1,0.2-2.2,0.6-3.3,1.1L123.9,84.7z"/>
	<path class="st1" d="M120.2,77c2-1,4.1-1.7,6.2-2.1c6.6-1.4,13.8-0.2,19.8,3.8c6.1,4,10,10.1,11.4,16.7c0.4,2.1,0.6,4.4,0.5,6.6
		l-4-0.2c0.1-1.9-0.1-3.7-0.4-5.6c-1.2-5.6-4.5-10.8-9.6-14.2c-5.2-3.4-11.2-4.4-16.8-3.2c-1.8,0.4-3.6,1-5.3,1.8L120.2,77z"/>
	<path class="st1" d="M116.3,69.1c2.6-1.3,5.4-2.2,8.3-2.8c8.8-1.8,18.4-0.3,26.5,5.1c8.1,5.3,13.3,13.5,15.1,22.3
		c0.6,2.9,0.8,5.8,0.7,8.7l-4-0.2c0.1-2.6-0.1-5.2-0.6-7.8c-1.6-7.8-6.2-15-13.4-19.8c-7.2-4.7-15.6-6.1-23.5-4.5
		c-2.5,0.5-5,1.4-7.4,2.5L116.3,69.1z"/>
</g>
<g>
	<path class="st2" d="M49.3,191.4l-15.6,17.9c-1.1,1.2-6.1,3.9-6.9,4.1c-0.5,0.1-1.7,0.1-2-0.1c-1.8-1.2-0.4-7-2.3-11.3l21.8-18.8
		L49.3,191.4z"/>
	<path class="st3" d="M130.1,171.8c0,0.6-0.3,1.2-0.7,1.7v0l0,0c-0.4,0.4-1,0.7-1.7,0.7h-13.2c-0.6,0-1.2-0.3-1.7-0.7
		c-0.4-0.4-0.7-1-0.7-1.7v-15.3c0.2,0,0.4,0,0.5,0c0.2,0,0.3,0,0.4,0v15.3c0,0.4,0.2,0.8,0.4,1c0.3,0.3,0.6,0.4,1,0.4h13.2
		c0.4,0,0.8-0.2,1-0.4l0,0c0.3-0.3,0.4-0.6,0.4-1c0-9.9,0-35.6,0-45.4c0-0.6,0.3-1.2,0.7-1.7l0,0c0.4-0.4,1-0.7,1.7-0.7h6.4
		c0.6,0,1.2,0.3,1.7,0.7c0.4,0.4,0.7,1,0.7,1.7v21.1h-0.9v-21.1c0-0.4-0.2-0.8-0.4-1c-0.3-0.3-0.6-0.4-1-0.4h-6.4
		c-0.4,0-0.8,0.2-1,0.4h0c-0.3,0.3-0.4,0.6-0.4,1C130.1,136.2,130.1,161.9,130.1,171.8z"/>
	<g>
		<polygon class="st4" points="76.6,155.5 94.9,155.5 96.4,170.7 75.1,170.7 		"/>
		<polygon class="st5" points="85.7,155.5 94.9,155.5 96.4,170.7 85.7,170.7 		"/>
		<path class="st6" d="M73.7,168.4h24c0.5,0,1,0.4,1,1v0.7c0,0.5-0.4,1-1,1h-24c-0.5,0-1-0.4-1-1v-0.7
			C72.7,168.8,73.2,168.4,73.7,168.4z"/>
		<path class="st4" d="M85.7,168.4h12c0.5,0,1,0.4,1,1v0.7c0,0.5-0.4,1-1,1h-12V168.4z"/>
		<path class="st5" d="M47.3,100.5h76.9c0.9,0,1.7,0.3,2.3,0.9c0.8,0.7,1.3,1.6,1.3,2.7v52c0,2-1.6,3.6-3.6,3.6H47.3
			c-2,0-3.6-1.6-3.6-3.6v-5.4V104C43.7,102.1,45.3,100.5,47.3,100.5z"/>
		<path class="st6" d="M127.8,151.5v4.5c0,2-1.6,3.6-3.6,3.6H47.3c-2,0-3.6-1.6-3.6-3.6v-4.5H127.8z"/>
		<path class="st4" d="M127.8,151.5v4.5c0,2-1.6,3.6-3.6,3.6H85.7v-8H127.8z"/>
		<rect x="46.5" y="103.6" class="st3" width="78.4" height="45.4"/>
		<path class="st4" d="M82,153.8h7.5c0.8,0,1.4,0.6,1.4,1.4l0,0c0,0.8-0.6,1.4-1.4,1.4H82c-0.8,0-1.4-0.6-1.4-1.4l0,0
			C80.6,154.4,81.2,153.8,82,153.8z"/>
		<path class="st5" d="M85.7,153.8h3.8c0.8,0,1.4,0.6,1.4,1.4l0,0c0,0.8-0.6,1.4-1.4,1.4h-3.8V153.8z"/>
	</g>
	<g>
		<polygon class="st5" points="149.2,155.8 146.2,150.3 144.4,168.9 147.1,169 149.1,166.9 		"/>
		<polygon class="st4" points="130.6,156.1 134.2,153.7 136.1,169.4 132.4,169.4 131.3,167.4 		"/>
		<polygon class="st6" points="136,142.8 144.3,142.8 147.2,145.9 147.2,168.9 140.4,174 139.4,174 132.4,169.4 132.4,146.1 		"/>
		<polygon class="st4" points="139.9,142.8 144.3,142.8 147.2,145.9 147.2,168.9 140.4,174 139.9,174 		"/>
		<polygon class="st3" points="138.2,142.8 141.6,142.8 141.6,173.1 140.4,174 139.4,174 138.2,173.2 		"/>
		<polygon class="st7" points="139.9,142.8 141.6,142.8 141.6,173.1 140.4,174 139.9,174 		"/>
		<path class="st6" d="M139.3,147.3h1.2c0.1,0,0.3,0.1,0.3,0.3v4.3c0,0.1-0.1,0.3-0.3,0.3h-1.2c-0.1,0-0.3-0.1-0.3-0.3v-4.3
			C139,147.4,139.2,147.3,139.3,147.3L139.3,147.3z M139.2,160.7h1.4c0.1,0,0.2,0.1,0.2,0.2v0.8c0,0.1-0.1,0.2-0.2,0.2h-1.4
			c-0.1,0-0.2-0.1-0.2-0.2v-0.8C139,160.8,139.1,160.7,139.2,160.7L139.2,160.7z M139.2,158.2h1.4c0.1,0,0.2,0.1,0.2,0.2v0.8
			c0,0.1-0.1,0.2-0.2,0.2h-1.4c-0.1,0-0.2-0.1-0.2-0.2v-0.8C139,158.2,139.1,158.2,139.2,158.2L139.2,158.2z M139.2,155.9h1.4
			c0.1,0,0.2,0.1,0.2,0.2v0.8c0,0.1-0.1,0.2-0.2,0.2h-1.4c-0.1,0-0.2-0.1-0.2-0.2v-0.8C139,156,139.1,155.9,139.2,155.9z"/>
		<path class="st4" d="M139.9,147.3h0.6c0.1,0,0.3,0.1,0.3,0.3v4.3c0,0.1-0.1,0.3-0.3,0.3h-0.6V147.3L139.9,147.3z M139.9,160.7h0.7
			c0.1,0,0.2,0.1,0.2,0.2v0.8c0,0.1-0.1,0.2-0.2,0.2h-0.7V160.7L139.9,160.7z M139.9,158.2h0.7c0.1,0,0.2,0.1,0.2,0.2v0.8
			c0,0.1-0.1,0.2-0.2,0.2h-0.7V158.2L139.9,158.2z M139.9,155.9h0.7c0.1,0,0.2,0.1,0.2,0.2v0.8c0,0.1-0.1,0.2-0.2,0.2h-0.7V155.9z"
			/>
	</g>
	<path class="st8" d="M59.7,185.2l0.3-0.9h-1.6H40.9c-2.2-0.8-4.4-7.8-6.5-8.9c-0.2-1.7-0.4-3.1-0.6-3.8c-0.3-1.1-1.9-2.5-2.7-5.4
		c-0.8-3-0.7-7.4,3.7-8.3c7.5-1.6,9,1.5,14.3-5.2c2.1-2.7,2.3-8.8,0.8-14.6H67c-1.5,5.8-1.3,11.8,0.8,14.6
		c2.1,2.8,11.6,3.4,12.2,3.5c3,0.4,5.1,1.7,6.1,3.8c3.6,7.6-2,16.6-3.8,24.3L59.7,185.2z"/>
	<path class="st2" d="M29.9,162.3l-9,41.7c-0.9,4,2.2,8.7,4,9.4c1.6,0.6,7.8-2,8.8-6.1l5.9-31.1C41,170.2,32.2,151.7,29.9,162.3z"/>
	<path class="st8" d="M87.1,161.3l20.5,40.1c1.5,3.8-1,8.4-2.7,9.3c-1.5,0.8-7.2-0.7-8.8-4.7l-17.1-25.4
		C75.5,172.9,84.6,155.4,87.1,161.3z"/>
	<path class="st8" d="M138.2,155.5L138.2,155.5c0.6-1.6,3.1-1.1,3,0.6l0.1,0c0.4-1.7,3.2-1.2,2.9,0.6l0.1,0l0,0
		c0.2-1.3,2.4-0.8,2.2,0.5c-0.4,3.5-0.6,7.2-1.1,10.8c-0.3,2-1.9,3-3.5,4l-34.3,36.2c-1.1,1.2-2.1,2.4-2.9,2.6
		c-3.2,0.7-4.2-6.4-6.4-11.4l35.4-28.7c-1.1-0.5-1.2-1.9-1.3-3.1l-0.2-5.2c-0.3-0.6,0-1.3,0.6-1.7l1.2-0.7c0.6-4.3,1.7-8.5,2.3-12.7
		c0.3-2.1,2.8-1.6,2.6,0.5L138.2,155.5z"/>
	<path class="st9" d="M45.5,156.2L45.5,156.2c2.5,5,7.6,8.4,13.5,8.4c6.4,0,11.8-4,14-9.6c3.2,0.8,6.7,1,7.1,1.1
		c3,0.4,5.1,1.7,6.1,3.8c-4,8.2-3.4,15.3-3.7,22.3l-6.5,30.4c1.5,3.6,4.9,10.7,7.5,17.2H33.5c2.5-6.5,6-13.7,7.5-17.2l-6.8-30.2
		c-1-7.1,1.2-14.9-3.5-22.5c1-2.1,3.1-3.4,6.1-3.8c0.4-0.1,4.6-0.3,8.1-1.3C45.1,155.3,45.3,155.7,45.5,156.2z"/>
	<path class="st10" d="M73.6,131.6c6.5-11.9,3.1-21.2,1.9-25.3c-1.9-6.3-9.5-11.3-18-11.2c-27.3,0.2-28.8,42.3-20.5,60
		c0.2,0.4,0.5,0.9,0.8,1.3C54.1,158,67,143.7,73.6,131.6z"/>
	<g>
		<g>
			<path class="st11" d="M105.2,116c0-0.2,0.1-0.4,0.2-0.5h0c0.1-0.1,0.3-0.2,0.5-0.2c0.2,0,0.4,0.1,0.5,0.2l0,0
				c0.1,0.1,0.2,0.3,0.2,0.5c0,0.1,0,0.2-0.1,0.3c0,0.1-0.1,0.2-0.2,0.3c-0.1,0.1-0.2,0.1-0.2,0.1c-0.1,0-0.1,0-0.1,0.3l-0.2,0
				c0-0.3,0-0.4,0.2-0.4c0,0,0.1,0,0.2-0.1c0.1-0.1,0.1-0.1,0.2-0.2c0-0.1,0.1-0.2,0.1-0.3c0-0.2-0.1-0.3-0.2-0.4
				c-0.1-0.1-0.2-0.2-0.4-0.2s-0.3,0.1-0.4,0.2c-0.1,0.1-0.2,0.2-0.2,0.4H105.2z"/>
			<rect x="102.4" y="119" class="st12" width="7" height="0.3"/>
			<rect x="105.4" y="116.9" class="st12" width="1.2" height="0.6"/>
			<path class="st11" d="M106,117.1c1.7,0,3.3,0.8,4.3,2c0.5,0.7-0.5,1.2-0.9,0.6c-0.8-1.4-2-2.2-3.4-2.2c-1.4,0-2.7,0.9-3.4,2.2
				c-0.4,0.6-1.4,0.1-0.9-0.6C102.6,117.8,104.2,117.1,106,117.1z"/>
		</g>
		<path class="st13" d="M104.5,117.5L104.5,117.5c0.3,0.6,0.9,1,1.6,1c0.7,0,1.4-0.5,1.6-1.1c0.5,0.1,1.2,0.4,1.5,0.7
			c-0.5,1-0.4,1.7-0.4,2.5l-1.3,3.5c0.3,0.7,1.7,2.6,1.7,3.3c0,1.2-0.8,5.7-1.4,8.5l3.7,8.1h-11l3.7-8.1c-0.6-2.8-1.4-7.2-1.4-8.5
			c0-0.7,1.4-2.6,1.7-3.3l-1.3-3.5c-0.1-0.8,0.1-1.7-0.4-2.6c0.5-0.4,1.1-0.6,1.6-0.7C104.4,117.3,104.5,117.4,104.5,117.5z"/>
	</g>
	<g>
		<rect x="80.1" y="104.9" class="st14" width="20.6" height="42.9"/>
		<g>
			<ellipse class="st12" cx="89.6" cy="107.6" rx="1.4" ry="1.1"/>
			<polygon class="st15" points="91.9,122 93.4,128.1 95.1,127.7 92.7,121 			"/>
			<polygon class="st15" points="92.5,114.4 93.3,114.7 92.8,121.3 91.9,122.1 91.8,116.5 			"/>
			<polygon class="st16" points="86.1,116.5 86.2,114.5 88.5,113.7 88.5,112.7 90.3,112.6 90.3,113.6 92.6,114.5 92.7,116.5 
				91.7,121.5 88.6,121.5 			"/>
			<polygon class="st8" points="89.5,115 88.5,113.7 88.5,112.7 90.3,112.6 90.3,113.6 			"/>
			<polygon class="st16" points="86.3,114.5 85.4,114.8 85.8,121.3 86.6,122.2 87.1,116.7 			"/>
			<path class="st16" d="M88.6,121.4l-1.1,3.9l-0.1,2.3l0.6,4.4l-5.2,14.8c4.8,0.4,7.9,0.3,12.7,0l-2.6-12.9l0.7-6.5l-0.3-2.2
				l-1.6-3.7L88.6,121.4z"/>
			<polygon class="st16" points="86.6,122 85.8,128.5 84.2,128.1 85.8,121.3 			"/>
			<g>
				<path class="st8" d="M89.4,107.2c1.1,0,2.1,1,2.1,2.2c0,0,0,0,0,0.1c0,0,0,0.1,0,0.1c-0.1,0.3-0.1,0.6-0.2,0.9l0.1-0.2
					c0.2-0.5,0.6-0.2,0.3,0.4c-0.1,0.3-0.2,0.7-0.6,0.9l0-0.1c0,0.1-0.1,0.3-0.2,0.5c-0.3,0.8-0.1,0.7-0.6,0.9
					c-0.4,0.2-0.7,0.3-0.9,0.3c-0.2,0-0.5-0.1-0.9-0.3c-0.5-0.2-0.3-0.2-0.6-0.9c0-0.1-0.1-0.3-0.1-0.4l0,0.1
					c-0.4-0.2-0.5-0.6-0.6-0.9c-0.3-0.6,0.1-0.9,0.3-0.4l0.1,0.2c-0.1-0.2-0.1-0.5-0.2-0.8c0,0,0-0.1,0-0.1c0,0,0,0,0-0.1
					C87.4,108.2,88.3,107.2,89.4,107.2z"/>
				<path class="st12" d="M88.2,108.4c0,1.2,2.6,0.3,3,1.8c0,0.2-0.1,2.3-0.8,2.8c0.8-0.3,1-2.6,1-2.7c0.6-2.3-0.9-3.3-2-3.1
					L88.2,108.4z"/>
				<path class="st12" d="M89.4,108.4c-0.7-0.6-1.7,0.4-1.7,2.1c0,0.1,0,1.6,0.7,2.5c-0.9-0.7-0.8-2.3-0.8-2.4
					c-0.7-2.4,0.8-3.5,1.9-3.3V108.4z"/>
			</g>
		</g>
	</g>
	<g>
		<rect x="113.9" y="105.6" class="st17" width="8.4" height="7.1"/>
		<path class="st11" d="M116.4,111.1v0.1c0.2,0,0.4,0.2,0.4,0.5c0,0.3-0.2,0.5-0.5,0.5c-0.3,0-0.5-0.2-0.5-0.5
			c0-0.2,0.2-0.4,0.4-0.5v-0.1h-0.3v-0.3l4.1,0c0.2,0,0.2-0.1,0.1-0.2l-0.3-0.5c0,0-0.1,0-0.1,0l-3.5-0.2c-0.2,0-0.3-0.1-0.3-0.3
			V108c0-0.2,0.1-0.3,0.3-0.3l4-0.6c0.2,0,0.3,0.1,0.3,0.2c0,0,0,0.1,0,0.1l-0.5,2.4c0,0,0,0.1,0,0.1l0.3,0.5
			c0.1,0.2,0.2,0.6-0.3,0.6h-0.3v0.1c0.2,0,0.4,0.2,0.4,0.5c0,0.3-0.2,0.5-0.5,0.5c-0.3,0-0.5-0.2-0.5-0.5c0-0.2,0.2-0.4,0.4-0.5
			v-0.1L116.4,111.1L116.4,111.1z M116,109.1l0.5,0l0-0.5l-0.5,0V109.1L116,109.1z M116.7,109.1l0.5,0l0-0.6l-0.5,0L116.7,109.1
			L116.7,109.1z M117.3,109.1l0.5,0l0-0.6l-0.5,0L117.3,109.1L117.3,109.1z M118,109.1l0.6,0l0.1-0.7l-0.6,0.1L118,109.1L118,109.1z
			 M118.8,109.1l0.5,0l0.1-0.8l-0.5,0L118.8,109.1L118.8,109.1z M119.5,109.1l0.4,0l0.2-0.8l-0.5,0L119.5,109.1L119.5,109.1z
			 M119.8,109.2l-0.4,0l-0.1,0.6l0.2,0c0.1,0,0.1-0.1,0.1-0.1L119.8,109.2L119.8,109.2z M119.3,109.2l-0.5,0l-0.1,0.6l0.5,0
			L119.3,109.2L119.3,109.2z M118.6,109.2l-0.6,0l0,0.5l0.6,0L118.6,109.2L118.6,109.2z M117.8,109.2h-0.5l0,0.5l0.5,0L117.8,109.2
			L117.8,109.2z M117.2,109.2l-0.5,0l0,0.5l0.5,0L117.2,109.2L117.2,109.2z M116.5,109.2l-0.5,0v0.3c0,0.1,0.1,0.1,0.1,0.1l0.3,0
			L116.5,109.2L116.5,109.2z M116,108.4l0.5,0l0-0.5l-0.4,0c-0.1,0-0.1,0.1-0.1,0.1V108.4L116,108.4z M116.7,108.4l0.5,0l0-0.5
			l-0.5,0.1L116.7,108.4L116.7,108.4z M117.4,108.3l0.5,0l0-0.6l-0.5,0.1L117.4,108.3L117.4,108.3z M118.1,108.2l0.6-0.1l0.1-0.6
			l-0.7,0.1L118.1,108.2L118.1,108.2z M118.9,108.2l0.5,0l0.1-0.6l-0.6,0.1L118.9,108.2L118.9,108.2z M119.6,108.1l0.5,0l0.1-0.5
			c0,0,0-0.1-0.1-0.1l-0.4,0.1L119.6,108.1L119.6,108.1z M121,106.1c0.2,0,0.3,0.1,0.3,0.3c0,0.2-0.1,0.3-0.3,0.3
			c-0.2,0-0.3-0.1-0.3-0.3C120.7,106.2,120.8,106.1,121,106.1L121,106.1z M120.8,106.7c0,0-0.1-0.1-0.1-0.1l-0.3,0.3l0,0l0,0l0,0.2
			c0.1,0,0.1,0.1,0.2,0.1l0.1-0.3L120.8,106.7L120.8,106.7z M119.5,111.4c-0.1,0-0.2,0.1-0.2,0.2s0.1,0.2,0.2,0.2
			c0.1,0,0.2-0.1,0.2-0.2S119.6,111.4,119.5,111.4L119.5,111.4z M116.3,111.4c-0.1,0-0.2,0.1-0.2,0.2s0.1,0.2,0.2,0.2
			c0.1,0,0.2-0.1,0.2-0.2S116.4,111.4,116.3,111.4z"/>
	</g>
	<g>
		<polygon class="st14" points="107.5,138.4 105.5,132.4 111.5,134.4 110.2,135.7 111.9,137.3 110.4,138.7 108.8,137.1 		"/>
		<polygon class="st18" points="105.5,132.4 111.5,134.4 110.2,135.7 111.9,137.3 111.2,138 		"/>
	</g>
	<g>
		<rect x="101.8" y="105.6" class="st17" width="8.4" height="7.1"/>
		<path class="st10" d="M103.2,109.5l0.5-1.3h-0.9c0-0.1,0-0.2,0-0.3c0-0.1,0-0.2,0-0.3h1.6l0,0.1l-0.6,1.4h0c0.1,0,0.2,0,0.3,0.1
			c0.1,0.1,0.2,0.1,0.2,0.2c0.1,0.1,0.1,0.2,0.1,0.3c0,0.1,0,0.2,0,0.4c0,0.2,0,0.4-0.1,0.6c-0.1,0.2-0.1,0.3-0.2,0.4
			c-0.1,0.1-0.2,0.2-0.4,0.3c-0.1,0.1-0.3,0.1-0.4,0.1c-0.1,0-0.1,0-0.2,0c-0.1,0-0.1,0-0.2,0c-0.1,0-0.1,0-0.2-0.1
			c-0.1,0-0.1-0.1-0.2-0.1c0-0.1,0-0.2,0-0.3c0-0.1,0.1-0.2,0.1-0.3c0.1,0,0.2,0.1,0.3,0.1c0.1,0,0.2,0,0.3,0c0.1,0,0.2,0,0.2,0
			c0.1,0,0.1-0.1,0.2-0.1c0.1-0.1,0.1-0.1,0.1-0.2c0-0.1,0-0.2,0-0.3c0-0.1,0-0.2,0-0.2c0-0.1-0.1-0.1-0.1-0.2c0,0-0.1-0.1-0.2-0.1
			c-0.1,0-0.1,0-0.2,0c0,0-0.1,0-0.1,0C103.3,109.5,103.3,109.5,103.2,109.5L103.2,109.5L103.2,109.5z M105.4,107.5h1.4
			c0,0.1,0,0.2,0,0.3c0,0.1,0,0.2,0,0.3h-0.9l0,0.8c0,0,0.1,0,0.1,0c0,0,0.1,0,0.1,0c0.1,0,0.2,0,0.3,0.1c0.1,0,0.2,0.1,0.3,0.2
			c0.1,0.1,0.1,0.2,0.2,0.4c0,0.1,0.1,0.3,0.1,0.5c0,0.2,0,0.4-0.1,0.6c-0.1,0.2-0.1,0.3-0.2,0.4c-0.1,0.1-0.2,0.2-0.4,0.3
			c-0.1,0.1-0.3,0.1-0.5,0.1c0,0-0.1,0-0.1,0c-0.1,0-0.1,0-0.2,0c-0.1,0-0.1,0-0.2-0.1c-0.1,0-0.1,0-0.2-0.1c0-0.1,0-0.2,0-0.3
			c0-0.1,0.1-0.2,0.1-0.3c0.1,0,0.2,0.1,0.3,0.1c0.1,0,0.2,0,0.3,0c0.1,0,0.2,0,0.3-0.1c0.1,0,0.1-0.1,0.2-0.1
			c0-0.1,0.1-0.1,0.1-0.2c0-0.1,0-0.2,0-0.2c0-0.2,0-0.3-0.1-0.4c-0.1-0.1-0.2-0.2-0.4-0.2c-0.1,0-0.1,0-0.2,0
			c-0.1,0-0.1,0.1-0.2,0.1l-0.1-0.1L105.4,107.5L105.4,107.5z M108.3,111.1L108.3,111.1c-0.1,0-0.2,0-0.3,0c-0.1,0-0.1,0-0.2,0
			c-0.1,0-0.1,0-0.2-0.1c-0.1,0-0.1-0.1-0.2-0.1c0-0.1,0-0.2,0-0.3c0-0.1,0-0.2,0.1-0.3c0.1,0.1,0.2,0.1,0.3,0.1c0.1,0,0.2,0,0.3,0
			c0.2,0,0.3,0,0.4-0.1c0.1-0.1,0.1-0.2,0.1-0.4c0-0.1,0-0.2,0-0.2c0-0.1-0.1-0.1-0.1-0.1c0,0-0.1-0.1-0.1-0.1c0,0-0.1-0.1-0.1-0.1
			l-0.2-0.1c-0.1-0.1-0.2-0.1-0.2-0.2c-0.1-0.1-0.1-0.1-0.2-0.2c-0.1-0.1-0.1-0.2-0.1-0.3c0-0.1,0-0.2,0-0.4c0-0.3,0.1-0.6,0.2-0.8
			c0.1-0.2,0.3-0.3,0.6-0.3v-0.6c0.1,0,0.1,0,0.2,0c0.1,0,0.1,0,0.2,0v0.6c0.1,0,0.2,0,0.3,0.1c0.1,0,0.2,0.1,0.3,0.1
			c0,0.2-0.1,0.4-0.1,0.6c0,0-0.1,0-0.1-0.1c0,0-0.1,0-0.1-0.1c0,0-0.1,0-0.2,0c-0.1,0-0.1,0-0.2,0c0,0-0.1,0-0.1,0
			c0,0-0.1,0-0.1,0.1c0,0-0.1,0.1-0.1,0.1c0,0.1,0,0.1,0,0.2c0,0.1,0,0.1,0,0.2c0,0,0,0.1,0.1,0.1c0,0,0.1,0.1,0.1,0.1
			c0,0,0.1,0,0.1,0.1l0.2,0.1c0.1,0.1,0.2,0.1,0.3,0.2c0.1,0.1,0.1,0.1,0.2,0.2c0.1,0.1,0.1,0.2,0.1,0.3c0,0.1,0,0.3,0,0.4
			c0,0.3-0.1,0.5-0.2,0.8c-0.1,0.2-0.3,0.3-0.5,0.4v0.6c-0.1,0-0.1,0-0.2,0c-0.1,0-0.1,0-0.2,0V111.1z"/>
	</g>
	<g>
		<g>
			<path class="st11" d="M117.3,116c0-0.2,0.1-0.4,0.2-0.5h0c0.1-0.1,0.3-0.2,0.5-0.2c0.2,0,0.4,0.1,0.5,0.2l0,0
				c0.1,0.1,0.2,0.3,0.2,0.5c0,0.1,0,0.2-0.1,0.3c0,0.1-0.1,0.2-0.2,0.3c-0.1,0.1-0.2,0.1-0.2,0.1c-0.1,0-0.1,0-0.1,0.3l-0.2,0
				c0-0.3,0-0.4,0.2-0.4c0,0,0.1,0,0.2-0.1c0.1-0.1,0.1-0.1,0.2-0.2c0-0.1,0.1-0.2,0.1-0.3c0-0.2-0.1-0.3-0.2-0.4
				c-0.1-0.1-0.2-0.2-0.4-0.2s-0.3,0.1-0.4,0.2c-0.1,0.1-0.2,0.2-0.2,0.4H117.3z"/>
			<rect x="114.6" y="119" class="st12" width="7" height="0.3"/>
			<rect x="117.5" y="116.9" class="st12" width="1.2" height="0.6"/>
			<path class="st11" d="M118.1,117.1c1.7,0,3.3,0.8,4.3,2c0.5,0.7-0.5,1.2-0.9,0.6c-0.8-1.4-2-2.2-3.4-2.2c-1.4,0-2.7,0.9-3.4,2.2
				c-0.4,0.6-1.4,0.1-0.9-0.6C114.7,117.8,116.3,117.1,118.1,117.1z"/>
		</g>
		<path class="st6" d="M116.6,117.5L116.6,117.5c0.3,0.6,0.8,1,1.6,1c0.7,0,1.4-0.5,1.6-1.1c0.5,0.1,1.2,0.4,1.5,0.7
			c-0.5,1-0.4,1.7-0.4,2.5l-1.3,3.5c0.3,0.7,1.8,2.6,1.7,3.3c0,1.2-0.8,5.7-1.4,8.5l3.7,8.1h-11l3.7-8.1c-0.6-2.8-1.4-7.2-1.4-8.5
			c0-0.7,1.4-2.6,1.7-3.3l-1.3-3.5c-0.1-0.8,0.1-1.7-0.4-2.6c0.5-0.4,1.1-0.6,1.6-0.7C116.5,117.3,116.6,117.4,116.6,117.5z"/>
	</g>
</g>
<path class="st0" d="M56.6,77.6v1.1h-2.2v-1.1H56.6L56.6,77.6z M91.3,44.5h1.1v2.2h-1.1V44.5L91.3,44.5z M91.3,47.8h1.1v2.2h-1.1
	V47.8L91.3,47.8z M91.3,51.2h1.1v2.2h-1.1V51.2L91.3,51.2z M91.3,54.5h1.1v2.2h-1.1V54.5L91.3,54.5z M91.3,57.9h1.1v2.2h-1.1V57.9
	L91.3,57.9z M91.3,61.2h1.1v2.2h-1.1V61.2L91.3,61.2z M91.3,64.6h1.1v2.2h-1.1V64.6L91.3,64.6z M91.3,67.9h1.1v2.2h-1.1V67.9
	L91.3,67.9z M91.3,71.3h1.1v2.2h-1.1V71.3L91.3,71.3z M91.2,74.5c-0.1,0.6-0.4,1.2-0.8,1.7l0.8,0.7c0.5-0.6,0.9-1.4,1.1-2.2
	L91.2,74.5L91.2,74.5z M89.6,76.9c-0.6,0.4-1.1,0.6-1.8,0.7l0,0l0.1,1.1c0.9-0.1,1.5-0.4,2.3-0.9L89.6,76.9L89.6,76.9z M86.8,77.6
	v1.1h-2.2v-1.1H86.8L86.8,77.6z M83.4,77.6v1.1h-2.2v-1.1H83.4L83.4,77.6z M80.1,77.6v1.1h-2.2v-1.1H80.1L80.1,77.6z M76.7,77.6v1.1
	h-2.2v-1.1H76.7L76.7,77.6z M73.4,77.6v1.1h-2.2v-1.1H73.4L73.4,77.6z M70,77.6v1.1h-2.2v-1.1H70L70,77.6z M66.7,77.6v1.1h-2.2v-1.1
	H66.7L66.7,77.6z M63.3,77.6v1.1h-2.2v-1.1H63.3L63.3,77.6z M60,77.6v1.1h-2.2v-1.1H60z"/>
<g>
	<path class="st19" d="M75,29.9c4.6-15,31.8-11.7,32.4,8.6c3.2-2.3,15.5-1.8,17.5,10.1c0.6,3.5,1.5,16.8-10.3,16.8H56.6
		C45.6,65.3,44,59.2,44,53.5c0-7.3,7.7-11.4,14.3-10.1C52.2,33.6,65.5,24.4,75,29.9z"/>
	<path class="st20" d="M109.1,24.6c3.9-12.7,27-10,27.5,7.3c2.7-1.9,13.2-1.5,14.8,8.6c0.5,3,1.3,14.3-8.8,14.3H93.5
		c-9.4,0-10.7-5.2-10.7-10c0-6.2,6.5-9.7,12.1-8.6C89.7,27.8,101,19.9,109.1,24.6z"/>
</g>
<g>
	<g>
		<g>
			<rect x="163.9" y="133.5" class="st21" width="71.3" height="60.5"/>
			<rect x="199.6" y="133.5" class="st22" width="35.7" height="60.5"/>
			<rect x="162.2" y="132.6" class="st23" width="74.8" height="10.7"/>
			<rect x="199.6" y="132.6" class="st21" width="37.4" height="10.7"/>
		</g>
		<g>
			<rect x="168" y="148.2" class="st24" width="24.3" height="11"/>
			<g>
				<rect x="188" y="149.7" class="st25" width="2.6" height="8.2"/>
				<rect x="183.4" y="149.7" class="st25" width="2.6" height="8.2"/>
				<rect x="178.6" y="149.7" class="st25" width="2.6" height="8.2"/>
				<rect x="174.2" y="149.7" class="st25" width="2.6" height="8.2"/>
				<rect x="169.8" y="149.7" class="st25" width="2.6" height="8.2"/>
			</g>
		</g>
	</g>
	<g>
		<path class="st8" d="M227.3,128.2c1.3-0.3,2.3-0.4,3.7,0.7c0.8,0.1,4.4,0.4,4.3,0.7l-1,3.2c-0.1,0.3-3.2,0-3.5,0.3
			c-0.6,0.6-1.6,1-2.3,1h-10.7c-0.2,0-0.3,0.1-0.5,0.1h-10.8c-2.6,0-2-2.6,0.6-2.9l10.3-1.1c0,0,0.1,0,0.1,0
			C220.4,129.5,224.2,128.8,227.3,128.2z"/>
		<path class="st8" d="M220.4,136l7.7-5.4c0.8-0.5,1.9-0.4,2.4,0.4l0,0c0.5,0.8,0.4,1.9-0.4,2.4l-7.7,5.4c-0.8,0.5-1.9,0.4-2.4-0.4
			l0,0C219.4,137.6,219.6,136.5,220.4,136z"/>
		<rect x="230.2" y="126.7" class="st6" width="51.3" height="9.1"/>
	</g>
	<g>
		<path class="st8" d="M227.3,199.7c1.3,0.3,2.3,0.4,3.7-0.7c0.8-0.1,4.4-0.4,4.3-0.7l-1-3.2c-0.1-0.3-3.2,0-3.5-0.3
			c-0.6-0.6-1.6-1-2.3-1h-10.7c-0.2,0-0.3-0.1-0.5-0.1h-10.8c-2.6,0-2,2.6,0.6,2.9l10.3,1.1c0,0,0.1,0,0.1,0
			C220.4,198.4,224.2,199.1,227.3,199.7z"/>
		<path class="st8" d="M220.4,191.9l7.7,5.4c0.8,0.5,1.9,0.4,2.4-0.4l0,0c0.5-0.8,0.4-1.9-0.4-2.4l-7.7-5.4
			c-0.8-0.5-1.9-0.4-2.4,0.4h0C219.4,190.2,219.6,191.3,220.4,191.9z"/>
		<rect x="230.2" y="192" class="st6" width="51.3" height="9.1"/>
	</g>
</g>
<path class="st13" d="M164.7,14.5L164.7,14.5c0.8,1.5,2.3,2.6,4.1,2.6c1.9,0,3.6-1.3,4.3-3c1.4,0.3,3.2,1.2,3.9,1.8
	c-1.2,2.5-0.9,4.5-1,6.6l-3.4,9.3c0.8,1.9,4.7,6.9,4.6,8.7c-0.1,3.2-2.1,15.2-3.7,22.5l9.8,21.5H154l9.8-21.5
	c-1.6-7.3-3.6-19.3-3.7-22.5c0-1.7,3.8-6.8,4.6-8.7l-3.5-9.3c-0.3-2.2,0.4-4.5-1-6.8c1.4-1.2,2.9-1.6,4.2-1.8
	C164.4,14,164.6,14.3,164.7,14.5z"/>
<g>
	<path class="st17" d="M187.2,44.3l0.2-6l6.5-2.1l4,5.7l4-5.7l6.5,2.1l0.2,6l-5,14.2c0,0,0.1,0.1,0.1,0.1h-11.8
		c0.1,0,0.1-0.1,0.2-0.1L187.2,44.3z"/>
	<path class="st26" d="M201.9,36.3l6.5,2.1l0.2,6l-5,14.2c0,0,0.1,0.1,0.1,0.1h-5.9V42L201.9,36.3z"/>
	<polygon class="st17" points="179.7,54.8 187.4,38.4 192.6,40.8 185.9,55 	"/>
	<polygon class="st26" points="216.1,54.8 208.4,38.4 203.2,40.8 209.9,55 	"/>
</g>
<g>
	<polygon class="st15" points="215.2,65.9 218.9,65.8 225.4,78.7 221.9,82.3 213.2,77.9 	"/>
	<polygon class="st16" points="210.5,65.1 218.6,65.8 221.9,82.3 217,84.8 209.9,82.3 	"/>
	<polygon class="st15" points="210.5,65.1 217.2,66 219.4,83.5 217,84.8 209.9,82.3 	"/>
	<g>
		<polygon class="st15" points="206.9,65.9 203.2,65.8 196.6,78.7 200.2,82.3 208.9,77.9 		"/>
		<polygon class="st16" points="211.6,65.1 203.5,65.8 200.2,82.3 205.1,84.8 212.1,82.3 		"/>
		<polygon class="st15" points="211.6,65.1 204.9,66 202.7,83.5 205.1,84.8 212.1,82.3 		"/>
		<rect x="205.1" y="65.2" class="st16" width="11.9" height="19.7"/>
	</g>
	<path class="st11" d="M202.9,64.5h16.2c0.3,0,0.5,0.2,0.5,0.5v1.8c0,0.3-0.2,0.5-0.5,0.5h-16.2c-0.3,0-0.5-0.2-0.5-0.5v-1.8
		C202.5,64.7,202.7,64.5,202.9,64.5z"/>
</g>
<g>
	<path class="st21" d="M203.2,84.7c0-3.4,1.4-6.5,3.6-8.8c2.2-2.2,5.3-3.6,8.8-3.6c3.4,0,6.5,1.4,8.8,3.6c2.2,2.2,3.6,5.3,3.6,8.8
		h-1.4c0-3-1.2-5.8-3.2-7.8c-2-2-4.7-3.2-7.8-3.2c-3,0-5.8,1.2-7.8,3.2c-2,2-3.2,4.7-3.2,7.8H203.2z"/>
	<polygon class="st23" points="197,83.6 234.1,83.6 237.8,124.6 193.3,124.6 	"/>
	<g>
		<path class="st27" d="M215.6,72.3c3.4,0,6.5,1.4,8.8,3.6c2.2,2.2,3.6,5.3,3.6,8.8h-1.4c0-3-1.2-5.8-3.2-7.8c-2-2-4.7-3.2-7.8-3.2
			V72.3z"/>
		<polygon class="st21" points="215.6,83.6 234.1,83.6 237.8,124.6 215.6,124.6 		"/>
	</g>
</g>
</svg>
