<svg width="420" height="374" viewBox="0 0 420 374" fill="none" xmlns="http://www.w3.org/2000/svg">
<path d="M14.016 22.352C13.376 22.352 13.056 22.672 13.056 23.312V33.168H2.752C2.112 33.168 1.792 33.488 1.792 34.128V42.064C1.792 42.704 2.112 43.024 2.752 43.024H13.056V52.88C13.056 53.52 13.376 53.84 14.016 53.84H22.528C23.168 53.84 23.488 53.52 23.488 52.88V43.024H33.728C34.368 43.024 34.688 42.704 34.688 42.064V34.128C34.688 33.488 34.368 33.168 33.728 33.168H23.488V23.312C23.488 22.672 23.168 22.352 22.528 22.352H14.016ZM42.26 7.888C41.684 7.888 41.3 8.208 41.236 8.848L39.572 28.112V35.216C39.572 36.304 40.212 36.816 41.556 36.816H54.228C57.812 36.816 60.18 37.2 61.268 37.968C62.356 38.672 62.932 40.08 62.932 42.192V42.64C62.932 44.688 62.356 46.096 61.204 46.864C60.116 47.632 57.748 48.016 54.228 48.016H40.532C39.892 48.016 39.572 48.336 39.572 48.912V55.376C39.572 56.464 40.02 56.912 41.236 57.232C44.756 57.936 49.556 58.32 55.508 58.32C61.652 58.32 65.684 57.744 69.268 55.952C72.916 54.16 74.772 50.768 74.772 45.648V39.184C74.772 34.128 72.98 30.672 69.588 28.88C66.196 27.088 62.484 26.448 57.108 26.448C54.676 26.448 52.436 26.576 50.324 26.896L51.092 18.192H72.724C73.428 18.192 73.748 17.872 73.748 17.232V8.848C73.748 8.208 73.428 7.888 72.724 7.888H42.26ZM99.6485 7.504C91.5205 7.504 86.9765 8.848 83.9685 12.944C80.9605 17.04 80.0645 22.8 80.0645 33.04C80.0645 43.216 80.8965 48.912 83.9045 53.008C86.9765 57.04 91.5205 58.32 99.6485 58.32C107.649 58.32 112.321 57.04 115.329 53.008C118.337 48.912 119.233 43.216 119.233 33.04C119.233 22.8 118.337 17.04 115.329 12.944C112.321 8.848 107.649 7.504 99.6485 7.504ZM91.9045 33.04C91.9045 27.088 92.4165 23.12 93.4405 21.008C94.5285 18.896 96.5765 17.808 99.6485 17.808C102.721 17.808 104.769 18.896 105.793 21.008C106.881 23.12 107.393 27.088 107.393 33.04C107.393 38.864 106.881 42.832 105.793 44.944C104.769 46.992 102.721 48.016 99.6485 48.016C96.5125 48.016 94.4645 46.992 93.4405 44.944C92.4165 42.896 91.9045 38.928 91.9045 33.04ZM130.576 46.608C126.416 46.608 124.048 48.784 124.048 52.432C124.048 56.208 126.416 58.32 130.576 58.32C134.608 58.32 136.976 56.08 136.976 52.432C136.976 48.784 134.608 46.608 130.576 46.608ZM161.399 7.504C153.271 7.504 148.727 8.848 145.719 12.944C142.711 17.04 141.815 22.8 141.815 33.04C141.815 43.216 142.647 48.912 145.655 53.008C148.727 57.04 153.271 58.32 161.399 58.32C169.399 58.32 174.071 57.04 177.079 53.008C180.087 48.912 180.983 43.216 180.983 33.04C180.983 22.8 180.087 17.04 177.079 12.944C174.071 8.848 169.399 7.504 161.399 7.504ZM153.655 33.04C153.655 27.088 154.167 23.12 155.191 21.008C156.279 18.896 158.327 17.808 161.399 17.808C164.471 17.808 166.519 18.896 167.543 21.008C168.631 23.12 169.143 27.088 169.143 33.04C169.143 38.864 168.631 42.832 167.543 44.944C166.519 46.992 164.471 48.016 161.399 48.016C158.263 48.016 156.215 46.992 155.191 44.944C154.167 42.896 153.655 38.928 153.655 33.04ZM206.086 7.504C197.958 7.504 193.414 8.848 190.406 12.944C187.398 17.04 186.502 22.8 186.502 33.04C186.502 43.216 187.334 48.912 190.342 53.008C193.414 57.04 197.958 58.32 206.086 58.32C214.086 58.32 218.758 57.04 221.766 53.008C224.774 48.912 225.67 43.216 225.67 33.04C225.67 22.8 224.774 17.04 221.766 12.944C218.758 8.848 214.086 7.504 206.086 7.504ZM198.342 33.04C198.342 27.088 198.854 23.12 199.878 21.008C200.966 18.896 203.014 17.808 206.086 17.808C209.158 17.808 211.206 18.896 212.23 21.008C213.318 23.12 213.83 27.088 213.83 33.04C213.83 38.864 213.318 42.832 212.23 44.944C211.206 46.992 209.158 48.016 206.086 48.016C202.95 48.016 200.902 46.992 199.878 44.944C198.854 42.896 198.342 38.928 198.342 33.04ZM250.774 7.504C242.646 7.504 238.102 8.848 235.094 12.944C232.086 17.04 231.19 22.8 231.19 33.04C231.19 43.216 232.022 48.912 235.03 53.008C238.102 57.04 242.646 58.32 250.774 58.32C258.774 58.32 263.446 57.04 266.454 53.008C269.462 48.912 270.358 43.216 270.358 33.04C270.358 22.8 269.462 17.04 266.454 12.944C263.446 8.848 258.774 7.504 250.774 7.504ZM243.03 33.04C243.03 27.088 243.542 23.12 244.566 21.008C245.654 18.896 247.702 17.808 250.774 17.808C253.846 17.808 255.894 18.896 256.918 21.008C258.006 23.12 258.518 27.088 258.518 33.04C258.518 38.864 258.006 42.832 256.918 44.944C255.894 46.992 253.846 48.016 250.774 48.016C247.638 48.016 245.59 46.992 244.566 44.944C243.542 42.896 243.03 38.928 243.03 33.04Z" fill="#742B64"/>
<path d="M14.016 22.352C13.376 22.352 13.056 22.672 13.056 23.312V33.168H2.752C2.112 33.168 1.792 33.488 1.792 34.128V42.064C1.792 42.704 2.112 43.024 2.752 43.024H13.056V52.88C13.056 53.52 13.376 53.84 14.016 53.84H22.528C23.168 53.84 23.488 53.52 23.488 52.88V43.024H33.728C34.368 43.024 34.688 42.704 34.688 42.064V34.128C34.688 33.488 34.368 33.168 33.728 33.168H23.488V23.312C23.488 22.672 23.168 22.352 22.528 22.352H14.016ZM42.26 7.888C41.684 7.888 41.3 8.208 41.236 8.848L39.572 28.112V35.216C39.572 36.304 40.212 36.816 41.556 36.816H54.228C57.812 36.816 60.18 37.2 61.268 37.968C62.356 38.672 62.932 40.08 62.932 42.192V42.64C62.932 44.688 62.356 46.096 61.204 46.864C60.116 47.632 57.748 48.016 54.228 48.016H40.532C39.892 48.016 39.572 48.336 39.572 48.912V55.376C39.572 56.464 40.02 56.912 41.236 57.232C44.756 57.936 49.556 58.32 55.508 58.32C61.652 58.32 65.684 57.744 69.268 55.952C72.916 54.16 74.772 50.768 74.772 45.648V39.184C74.772 34.128 72.98 30.672 69.588 28.88C66.196 27.088 62.484 26.448 57.108 26.448C54.676 26.448 52.436 26.576 50.324 26.896L51.092 18.192H72.724C73.428 18.192 73.748 17.872 73.748 17.232V8.848C73.748 8.208 73.428 7.888 72.724 7.888H42.26ZM99.6485 7.504C91.5205 7.504 86.9765 8.848 83.9685 12.944C80.9605 17.04 80.0645 22.8 80.0645 33.04C80.0645 43.216 80.8965 48.912 83.9045 53.008C86.9765 57.04 91.5205 58.32 99.6485 58.32C107.649 58.32 112.321 57.04 115.329 53.008C118.337 48.912 119.233 43.216 119.233 33.04C119.233 22.8 118.337 17.04 115.329 12.944C112.321 8.848 107.649 7.504 99.6485 7.504ZM91.9045 33.04C91.9045 27.088 92.4165 23.12 93.4405 21.008C94.5285 18.896 96.5765 17.808 99.6485 17.808C102.721 17.808 104.769 18.896 105.793 21.008C106.881 23.12 107.393 27.088 107.393 33.04C107.393 38.864 106.881 42.832 105.793 44.944C104.769 46.992 102.721 48.016 99.6485 48.016C96.5125 48.016 94.4645 46.992 93.4405 44.944C92.4165 42.896 91.9045 38.928 91.9045 33.04ZM130.576 46.608C126.416 46.608 124.048 48.784 124.048 52.432C124.048 56.208 126.416 58.32 130.576 58.32C134.608 58.32 136.976 56.08 136.976 52.432C136.976 48.784 134.608 46.608 130.576 46.608ZM161.399 7.504C153.271 7.504 148.727 8.848 145.719 12.944C142.711 17.04 141.815 22.8 141.815 33.04C141.815 43.216 142.647 48.912 145.655 53.008C148.727 57.04 153.271 58.32 161.399 58.32C169.399 58.32 174.071 57.04 177.079 53.008C180.087 48.912 180.983 43.216 180.983 33.04C180.983 22.8 180.087 17.04 177.079 12.944C174.071 8.848 169.399 7.504 161.399 7.504ZM153.655 33.04C153.655 27.088 154.167 23.12 155.191 21.008C156.279 18.896 158.327 17.808 161.399 17.808C164.471 17.808 166.519 18.896 167.543 21.008C168.631 23.12 169.143 27.088 169.143 33.04C169.143 38.864 168.631 42.832 167.543 44.944C166.519 46.992 164.471 48.016 161.399 48.016C158.263 48.016 156.215 46.992 155.191 44.944C154.167 42.896 153.655 38.928 153.655 33.04ZM206.086 7.504C197.958 7.504 193.414 8.848 190.406 12.944C187.398 17.04 186.502 22.8 186.502 33.04C186.502 43.216 187.334 48.912 190.342 53.008C193.414 57.04 197.958 58.32 206.086 58.32C214.086 58.32 218.758 57.04 221.766 53.008C224.774 48.912 225.67 43.216 225.67 33.04C225.67 22.8 224.774 17.04 221.766 12.944C218.758 8.848 214.086 7.504 206.086 7.504ZM198.342 33.04C198.342 27.088 198.854 23.12 199.878 21.008C200.966 18.896 203.014 17.808 206.086 17.808C209.158 17.808 211.206 18.896 212.23 21.008C213.318 23.12 213.83 27.088 213.83 33.04C213.83 38.864 213.318 42.832 212.23 44.944C211.206 46.992 209.158 48.016 206.086 48.016C202.95 48.016 200.902 46.992 199.878 44.944C198.854 42.896 198.342 38.928 198.342 33.04ZM250.774 7.504C242.646 7.504 238.102 8.848 235.094 12.944C232.086 17.04 231.19 22.8 231.19 33.04C231.19 43.216 232.022 48.912 235.03 53.008C238.102 57.04 242.646 58.32 250.774 58.32C258.774 58.32 263.446 57.04 266.454 53.008C269.462 48.912 270.358 43.216 270.358 33.04C270.358 22.8 269.462 17.04 266.454 12.944C263.446 8.848 258.774 7.504 250.774 7.504ZM243.03 33.04C243.03 27.088 243.542 23.12 244.566 21.008C245.654 18.896 247.702 17.808 250.774 17.808C253.846 17.808 255.894 18.896 256.918 21.008C258.006 23.12 258.518 27.088 258.518 33.04C258.518 38.864 258.006 42.832 256.918 44.944C255.894 46.992 253.846 48.016 250.774 48.016C247.638 48.016 245.59 46.992 244.566 44.944C243.542 42.896 243.03 38.928 243.03 33.04Z" fill="url(#paint0_linear)"/>
<path d="M18.768 203.896C18.048 203.896 17.688 204.256 17.688 204.976V216.064H6.096C5.376 216.064 5.016 216.424 5.016 217.144V226.072C5.016 226.792 5.376 227.152 6.096 227.152H17.688V238.24C17.688 238.96 18.048 239.32 18.768 239.32H28.344C29.064 239.32 29.424 238.96 29.424 238.24V227.152H40.944C41.664 227.152 42.024 226.792 42.024 226.072V217.144C42.024 216.424 41.664 216.064 40.944 216.064H29.424V204.976C29.424 204.256 29.064 203.896 28.344 203.896H18.768ZM50.5425 187.624C49.8945 187.624 49.4625 187.984 49.3905 188.704L47.5185 210.376V218.368C47.5185 219.592 48.2385 220.168 49.7505 220.168H64.0065C68.0385 220.168 70.7025 220.6 71.9265 221.464C73.1505 222.256 73.7985 223.84 73.7985 226.216V226.72C73.7985 229.024 73.1505 230.608 71.8545 231.472C70.6305 232.336 67.9665 232.768 64.0065 232.768H48.5985C47.8785 232.768 47.5185 233.128 47.5185 233.776V241.048C47.5185 242.272 48.0225 242.776 49.3905 243.136C53.3505 243.928 58.7505 244.36 65.4465 244.36C72.3585 244.36 76.8945 243.712 80.9265 241.696C85.0305 239.68 87.1185 235.864 87.1185 230.104V222.832C87.1185 217.144 85.1025 213.256 81.2865 211.24C77.4705 209.224 73.2945 208.504 67.2465 208.504C64.5105 208.504 61.9905 208.648 59.6145 209.008L60.4785 199.216H84.8145C85.6065 199.216 85.9665 198.856 85.9665 198.136V188.704C85.9665 187.984 85.6065 187.624 84.8145 187.624H50.5425ZM115.105 187.192C105.961 187.192 100.849 188.704 97.4646 193.312C94.0806 197.92 93.0726 204.4 93.0726 215.92C93.0726 227.368 94.0086 233.776 97.3926 238.384C100.849 242.92 105.961 244.36 115.105 244.36C124.105 244.36 129.361 242.92 132.745 238.384C136.129 233.776 137.137 227.368 137.137 215.92C137.137 204.4 136.129 197.92 132.745 193.312C129.361 188.704 124.105 187.192 115.105 187.192ZM106.393 215.92C106.393 209.224 106.969 204.76 108.121 202.384C109.345 200.008 111.649 198.784 115.105 198.784C118.561 198.784 120.865 200.008 122.017 202.384C123.241 204.76 123.817 209.224 123.817 215.92C123.817 222.472 123.241 226.936 122.017 229.312C120.865 231.616 118.561 232.768 115.105 232.768C111.577 232.768 109.273 231.616 108.121 229.312C106.969 227.008 106.393 222.544 106.393 215.92ZM165.378 187.192C156.234 187.192 151.122 188.704 147.738 193.312C144.354 197.92 143.346 204.4 143.346 215.92C143.346 227.368 144.282 233.776 147.666 238.384C151.122 242.92 156.234 244.36 165.378 244.36C174.378 244.36 179.634 242.92 183.018 238.384C186.402 233.776 187.41 227.368 187.41 215.92C187.41 204.4 186.402 197.92 183.018 193.312C179.634 188.704 174.378 187.192 165.378 187.192ZM156.666 215.92C156.666 209.224 157.242 204.76 158.394 202.384C159.618 200.008 161.922 198.784 165.378 198.784C168.834 198.784 171.138 200.008 172.29 202.384C173.514 204.76 174.09 209.224 174.09 215.92C174.09 222.472 173.514 226.936 172.29 229.312C171.138 231.616 168.834 232.768 165.378 232.768C161.85 232.768 159.546 231.616 158.394 229.312C157.242 227.008 156.666 222.544 156.666 215.92Z" fill="#742B64"/>
<path d="M18.768 203.896C18.048 203.896 17.688 204.256 17.688 204.976V216.064H6.096C5.376 216.064 5.016 216.424 5.016 217.144V226.072C5.016 226.792 5.376 227.152 6.096 227.152H17.688V238.24C17.688 238.96 18.048 239.32 18.768 239.32H28.344C29.064 239.32 29.424 238.96 29.424 238.24V227.152H40.944C41.664 227.152 42.024 226.792 42.024 226.072V217.144C42.024 216.424 41.664 216.064 40.944 216.064H29.424V204.976C29.424 204.256 29.064 203.896 28.344 203.896H18.768ZM50.5425 187.624C49.8945 187.624 49.4625 187.984 49.3905 188.704L47.5185 210.376V218.368C47.5185 219.592 48.2385 220.168 49.7505 220.168H64.0065C68.0385 220.168 70.7025 220.6 71.9265 221.464C73.1505 222.256 73.7985 223.84 73.7985 226.216V226.72C73.7985 229.024 73.1505 230.608 71.8545 231.472C70.6305 232.336 67.9665 232.768 64.0065 232.768H48.5985C47.8785 232.768 47.5185 233.128 47.5185 233.776V241.048C47.5185 242.272 48.0225 242.776 49.3905 243.136C53.3505 243.928 58.7505 244.36 65.4465 244.36C72.3585 244.36 76.8945 243.712 80.9265 241.696C85.0305 239.68 87.1185 235.864 87.1185 230.104V222.832C87.1185 217.144 85.1025 213.256 81.2865 211.24C77.4705 209.224 73.2945 208.504 67.2465 208.504C64.5105 208.504 61.9905 208.648 59.6145 209.008L60.4785 199.216H84.8145C85.6065 199.216 85.9665 198.856 85.9665 198.136V188.704C85.9665 187.984 85.6065 187.624 84.8145 187.624H50.5425ZM115.105 187.192C105.961 187.192 100.849 188.704 97.4646 193.312C94.0806 197.92 93.0726 204.4 93.0726 215.92C93.0726 227.368 94.0086 233.776 97.3926 238.384C100.849 242.92 105.961 244.36 115.105 244.36C124.105 244.36 129.361 242.92 132.745 238.384C136.129 233.776 137.137 227.368 137.137 215.92C137.137 204.4 136.129 197.92 132.745 193.312C129.361 188.704 124.105 187.192 115.105 187.192ZM106.393 215.92C106.393 209.224 106.969 204.76 108.121 202.384C109.345 200.008 111.649 198.784 115.105 198.784C118.561 198.784 120.865 200.008 122.017 202.384C123.241 204.76 123.817 209.224 123.817 215.92C123.817 222.472 123.241 226.936 122.017 229.312C120.865 231.616 118.561 232.768 115.105 232.768C111.577 232.768 109.273 231.616 108.121 229.312C106.969 227.008 106.393 222.544 106.393 215.92ZM165.378 187.192C156.234 187.192 151.122 188.704 147.738 193.312C144.354 197.92 143.346 204.4 143.346 215.92C143.346 227.368 144.282 233.776 147.666 238.384C151.122 242.92 156.234 244.36 165.378 244.36C174.378 244.36 179.634 242.92 183.018 238.384C186.402 233.776 187.41 227.368 187.41 215.92C187.41 204.4 186.402 197.92 183.018 193.312C179.634 188.704 174.378 187.192 165.378 187.192ZM156.666 215.92C156.666 209.224 157.242 204.76 158.394 202.384C159.618 200.008 161.922 198.784 165.378 198.784C168.834 198.784 171.138 200.008 172.29 202.384C173.514 204.76 174.09 209.224 174.09 215.92C174.09 222.472 173.514 226.936 172.29 229.312C171.138 231.616 168.834 232.768 165.378 232.768C161.85 232.768 159.546 231.616 158.394 229.312C157.242 227.008 156.666 222.544 156.666 215.92Z" fill="url(#paint1_linear)"/>
<path d="M91.768 125.896C91.048 125.896 90.688 126.256 90.688 126.976V138.064H79.096C78.376 138.064 78.016 138.424 78.016 139.144V148.072C78.016 148.792 78.376 149.152 79.096 149.152H90.688V160.24C90.688 160.96 91.048 161.32 91.768 161.32H101.344C102.064 161.32 102.424 160.96 102.424 160.24V149.152H113.944C114.664 149.152 115.024 148.792 115.024 148.072V139.144C115.024 138.424 114.664 138.064 113.944 138.064H102.424V126.976C102.424 126.256 102.064 125.896 101.344 125.896H91.768ZM136.07 109.696C135.495 109.696 135.062 109.912 134.775 110.416L120.663 138.28C119.799 140.152 119.367 142.312 119.367 144.832V152.032C119.367 157.576 121.527 161.536 125.559 163.552C129.591 165.568 134.199 166.36 140.751 166.36C147.159 166.36 151.623 165.568 155.583 163.552C159.543 161.536 161.559 157.72 161.559 152.032V144.832C161.559 135.76 155.439 131.224 143.127 131.224C141.399 131.224 139.743 131.368 138.159 131.584L148.455 110.992C148.887 110.128 148.671 109.696 147.735 109.696H136.07ZM140.751 142.168C143.919 142.168 145.935 142.6 146.871 143.464C147.807 144.328 148.239 145.912 148.239 148.288V148.648C148.239 151.024 147.807 152.608 146.871 153.472C146.007 154.336 143.991 154.768 140.751 154.768C137.367 154.768 135.207 154.336 134.199 153.472C133.191 152.608 132.687 151.024 132.687 148.648V148.216C132.687 145.912 133.191 144.328 134.199 143.464C135.279 142.6 137.439 142.168 140.751 142.168ZM188.316 109.192C179.172 109.192 174.06 110.704 170.676 115.312C167.292 119.92 166.284 126.4 166.284 137.92C166.284 149.368 167.22 155.776 170.604 160.384C174.06 164.92 179.172 166.36 188.316 166.36C197.316 166.36 202.572 164.92 205.956 160.384C209.34 155.776 210.348 149.368 210.348 137.92C210.348 126.4 209.34 119.92 205.956 115.312C202.572 110.704 197.316 109.192 188.316 109.192ZM179.604 137.92C179.604 131.224 180.18 126.76 181.332 124.384C182.556 122.008 184.86 120.784 188.316 120.784C191.772 120.784 194.076 122.008 195.228 124.384C196.452 126.76 197.028 131.224 197.028 137.92C197.028 144.472 196.452 148.936 195.228 151.312C194.076 153.616 191.772 154.768 188.316 154.768C184.788 154.768 182.484 153.616 181.332 151.312C180.18 149.008 179.604 144.544 179.604 137.92Z" fill="#F0762D"/>
<path d="M91.768 125.896C91.048 125.896 90.688 126.256 90.688 126.976V138.064H79.096C78.376 138.064 78.016 138.424 78.016 139.144V148.072C78.016 148.792 78.376 149.152 79.096 149.152H90.688V160.24C90.688 160.96 91.048 161.32 91.768 161.32H101.344C102.064 161.32 102.424 160.96 102.424 160.24V149.152H113.944C114.664 149.152 115.024 148.792 115.024 148.072V139.144C115.024 138.424 114.664 138.064 113.944 138.064H102.424V126.976C102.424 126.256 102.064 125.896 101.344 125.896H91.768ZM136.07 109.696C135.495 109.696 135.062 109.912 134.775 110.416L120.663 138.28C119.799 140.152 119.367 142.312 119.367 144.832V152.032C119.367 157.576 121.527 161.536 125.559 163.552C129.591 165.568 134.199 166.36 140.751 166.36C147.159 166.36 151.623 165.568 155.583 163.552C159.543 161.536 161.559 157.72 161.559 152.032V144.832C161.559 135.76 155.439 131.224 143.127 131.224C141.399 131.224 139.743 131.368 138.159 131.584L148.455 110.992C148.887 110.128 148.671 109.696 147.735 109.696H136.07ZM140.751 142.168C143.919 142.168 145.935 142.6 146.871 143.464C147.807 144.328 148.239 145.912 148.239 148.288V148.648C148.239 151.024 147.807 152.608 146.871 153.472C146.007 154.336 143.991 154.768 140.751 154.768C137.367 154.768 135.207 154.336 134.199 153.472C133.191 152.608 132.687 151.024 132.687 148.648V148.216C132.687 145.912 133.191 144.328 134.199 143.464C135.279 142.6 137.439 142.168 140.751 142.168ZM188.316 109.192C179.172 109.192 174.06 110.704 170.676 115.312C167.292 119.92 166.284 126.4 166.284 137.92C166.284 149.368 167.22 155.776 170.604 160.384C174.06 164.92 179.172 166.36 188.316 166.36C197.316 166.36 202.572 164.92 205.956 160.384C209.34 155.776 210.348 149.368 210.348 137.92C210.348 126.4 209.34 119.92 205.956 115.312C202.572 110.704 197.316 109.192 188.316 109.192ZM179.604 137.92C179.604 131.224 180.18 126.76 181.332 124.384C182.556 122.008 184.86 120.784 188.316 120.784C191.772 120.784 194.076 122.008 195.228 124.384C196.452 126.76 197.028 131.224 197.028 137.92C197.028 144.472 196.452 148.936 195.228 151.312C194.076 153.616 191.772 154.768 188.316 154.768C184.788 154.768 182.484 153.616 181.332 151.312C180.18 149.008 179.604 144.544 179.604 137.92Z" fill="url(#paint2_linear)"/>
<path d="M77.7 63.136C77.34 63.136 77.16 63.316 77.16 63.712V90.424C77.16 90.82 77.34 91 77.664 91H81.984C82.344 91 82.524 90.82 82.524 90.424V75.268H85.764C88.212 75.268 88.896 75.484 89.328 76.96C89.544 77.68 89.652 78.904 89.652 80.668V90.424C89.652 90.82 89.832 91 90.156 91H94.44C94.8 91 94.98 90.82 94.98 90.424V79.3C94.98 75.556 94.62 73.54 93.18 72.244C91.776 70.948 89.94 70.66 86.304 70.66C84.864 70.66 83.604 70.732 82.488 70.84V63.712C82.488 63.316 82.308 63.136 81.948 63.136H77.7ZM107.736 70.66C104.028 70.66 101.544 71.344 100.356 72.712C99.1678 74.044 98.5558 76.78 98.5558 80.92C98.5558 85.06 99.1678 87.796 100.356 89.164C101.544 90.496 104.028 91.18 107.736 91.18C111.444 91.18 113.928 90.496 115.116 89.164C116.304 87.796 116.916 85.06 116.916 80.92C116.916 76.636 116.556 74.332 115.116 72.748C113.676 71.128 111.624 70.66 107.736 70.66ZM107.736 75.268C109.356 75.268 110.4 75.628 110.868 76.384C111.336 77.104 111.588 78.616 111.588 80.92C111.588 83.224 111.336 84.736 110.868 85.492C110.4 86.212 109.356 86.572 107.736 86.572C106.116 86.572 105.072 86.212 104.604 85.492C104.136 84.736 103.92 83.224 103.92 80.92C103.92 78.616 104.136 77.104 104.604 76.384C105.072 75.628 106.116 75.268 107.736 75.268ZM127.057 70.66C125.041 70.66 123.205 70.876 121.873 71.992C121.117 72.712 120.541 74.008 120.541 75.736V90.424C120.541 90.82 120.721 91 121.081 91H125.365C125.725 91 125.905 90.82 125.905 90.424V77.104C125.905 75.628 126.445 75.268 128.425 75.268H131.809C132.205 75.268 132.421 75.088 132.421 74.728V71.776C132.421 71.38 132.241 71.164 131.845 71.056C130.693 70.804 129.109 70.66 127.057 70.66ZM141.811 70.66C139.291 70.66 137.131 70.84 135.295 71.2C134.899 71.308 134.791 71.38 134.791 71.776V74.728C134.791 75.16 134.899 75.268 135.295 75.268H141.811C144.079 75.268 145.195 76.096 145.195 77.752V79.048H140.623C138.067 79.048 136.195 79.444 135.007 80.272C133.855 81.1 133.279 82.648 133.243 84.952C133.279 87.724 133.891 89.344 135.439 90.208C137.023 91.036 138.535 91.18 141.559 91.18C144.799 91.18 147.535 90.928 149.731 90.424C150.271 90.244 150.523 89.884 150.523 89.308V76.852C150.523 74.728 149.911 73.18 148.687 72.172C147.463 71.164 145.159 70.66 141.811 70.66ZM145.195 86.5C144.331 86.752 143.143 86.86 141.595 86.86C139.291 86.86 138.535 86.356 138.535 84.664C138.535 83.08 139.183 82.504 141.055 82.504H145.195V86.5ZM162.419 70.66C156.983 70.66 154.247 72.136 154.247 75.844V76.528C154.247 79.336 155.471 81.172 157.919 82L162.347 83.584C163.895 84.124 164.327 84.556 164.327 85.276V85.6C164.327 86.572 163.751 86.824 161.843 86.824H154.463C154.067 86.824 153.851 87.004 153.851 87.364V90.28C153.851 90.64 154.067 90.82 154.463 90.82C156.767 91.072 159.251 91.18 161.915 91.18C166.919 91.18 169.583 89.848 169.583 85.924V85.348C169.583 82.648 168.683 80.956 165.803 79.948L161.195 78.328C160.043 77.932 159.467 77.356 159.467 76.672V76.312C159.467 75.448 160.187 75.016 161.591 75.016H168.071C168.467 75.016 168.683 74.836 168.683 74.44V71.704C168.683 71.416 168.503 71.236 168.107 71.128C166.307 70.804 164.399 70.66 162.419 70.66ZM192.944 63.136C192.584 63.136 192.404 63.316 192.404 63.712V70.876C191.072 70.732 189.596 70.66 187.976 70.66C184.7 70.66 182.504 71.38 181.388 72.784C180.272 74.188 179.732 76.924 179.732 80.956C179.732 85.024 180.344 87.76 181.568 89.128C182.792 90.496 185.276 91.18 189.056 91.18C191.468 91.18 194.096 90.964 196.976 90.496C197.48 90.424 197.732 90.136 197.732 89.596V63.712C197.732 63.316 197.552 63.136 197.192 63.136H192.944ZM192.404 86.32C191.396 86.5 190.244 86.572 188.948 86.572C187.256 86.572 186.176 86.212 185.708 85.456C185.276 84.7 185.06 83.188 185.06 80.92C185.06 78.544 185.312 77.032 185.78 76.348C186.248 75.664 187.4 75.304 189.164 75.304H192.404V86.32ZM210.424 70.66C206.788 70.66 204.376 71.344 203.188 72.712C202 74.044 201.388 76.78 201.388 80.92C201.388 85.024 202 87.76 203.188 89.128C204.376 90.496 206.788 91.18 210.424 91.18C213.412 91.18 215.68 91 217.3 90.676C217.624 90.64 217.804 90.424 217.804 90.1V87.112C217.804 86.752 217.624 86.572 217.264 86.572H210.892C209.272 86.572 208.192 86.32 207.652 85.852C207.112 85.384 206.86 84.34 206.824 82.756H218.128C219.028 82.756 219.28 82.504 219.28 81.784V80.668C219.244 76.672 218.668 74.008 217.48 72.676C216.328 71.344 213.988 70.66 210.424 70.66ZM210.424 75.268C213.052 75.268 213.88 76.132 213.916 79.264H206.788C206.824 76.132 207.688 75.268 210.424 75.268ZM238.622 70.66C234.698 70.66 232.574 71.056 231.17 72.748C229.838 74.368 229.478 76.6 229.478 80.92C229.478 85.24 229.838 87.436 231.17 89.128C232.574 90.748 234.698 91.18 238.622 91.18C241.034 91.18 242.978 91 244.49 90.676C244.886 90.604 245.102 90.388 245.102 89.992V87.112C245.102 86.752 244.886 86.572 244.49 86.572H238.622C237.002 86.572 235.958 86.212 235.49 85.492C235.022 84.736 234.806 83.224 234.806 80.92C234.806 78.58 235.022 77.068 235.49 76.348C235.958 75.628 237.002 75.268 238.622 75.268H244.49C244.886 75.268 245.102 75.088 245.102 74.692V71.848C245.102 71.452 244.886 71.2 244.49 71.128C242.942 70.804 240.998 70.66 238.622 70.66ZM257.044 70.66C253.336 70.66 250.852 71.344 249.664 72.712C248.476 74.044 247.864 76.78 247.864 80.92C247.864 85.06 248.476 87.796 249.664 89.164C250.852 90.496 253.336 91.18 257.044 91.18C260.752 91.18 263.236 90.496 264.424 89.164C265.612 87.796 266.224 85.06 266.224 80.92C266.224 76.636 265.864 74.332 264.424 72.748C262.984 71.128 260.932 70.66 257.044 70.66ZM257.044 75.268C258.664 75.268 259.708 75.628 260.176 76.384C260.644 77.104 260.896 78.616 260.896 80.92C260.896 83.224 260.644 84.736 260.176 85.492C259.708 86.212 258.664 86.572 257.044 86.572C255.424 86.572 254.38 86.212 253.912 85.492C253.444 84.736 253.228 83.224 253.228 80.92C253.228 78.616 253.444 77.104 253.912 76.384C254.38 75.628 255.424 75.268 257.044 75.268ZM279.03 70.66C275.106 70.66 272.262 70.876 270.426 71.272C270.066 71.344 269.886 71.38 269.886 71.812V90.424C269.886 90.82 270.066 91 270.426 91H274.71C275.07 91 275.25 90.82 275.25 90.424V75.268H278.526C280.398 75.268 281.046 75.304 281.658 76.06C282.342 76.816 282.378 77.968 282.378 80.668V90.424C282.378 90.82 282.558 91 282.918 91H287.166C287.562 91 287.742 90.82 287.742 90.424V79.3C287.742 75.556 287.382 73.54 285.942 72.244C284.538 70.948 282.666 70.66 279.03 70.66ZM299.634 70.66C294.198 70.66 291.462 72.136 291.462 75.844V76.528C291.462 79.336 292.686 81.172 295.134 82L299.562 83.584C301.11 84.124 301.542 84.556 301.542 85.276V85.6C301.542 86.572 300.966 86.824 299.058 86.824H291.678C291.282 86.824 291.066 87.004 291.066 87.364V90.28C291.066 90.64 291.282 90.82 291.678 90.82C293.982 91.072 296.466 91.18 299.13 91.18C304.134 91.18 306.798 89.848 306.798 85.924V85.348C306.798 82.648 305.898 80.956 303.018 79.948L298.41 78.328C297.258 77.932 296.682 77.356 296.682 76.672V76.312C296.682 75.448 297.402 75.016 298.806 75.016H305.286C305.682 75.016 305.898 74.836 305.898 74.44V71.704C305.898 71.416 305.718 71.236 305.322 71.128C303.522 70.804 301.614 70.66 299.634 70.66ZM322.992 70.84C322.632 70.84 322.452 71.02 322.452 71.38V86.572H319.212C316.764 86.572 316.08 86.356 315.648 84.916C315.432 84.16 315.324 82.9 315.324 81.136V71.38C315.324 71.02 315.144 70.84 314.82 70.84H310.572C310.176 70.84 309.996 71.02 309.996 71.38V82.504C309.996 86.284 310.356 88.3 311.76 89.596C313.2 90.892 315.036 91.18 318.672 91.18C322.308 91.18 325.188 90.964 327.312 90.568C327.708 90.46 327.816 90.388 327.816 89.956V71.38C327.816 71.02 327.636 70.84 327.312 70.84H322.992ZM332.653 63.136C332.293 63.136 332.113 63.316 332.113 63.676V90.424C332.113 90.82 332.293 91 332.653 91H336.901C337.261 91 337.441 90.82 337.441 90.424V63.676C337.441 63.316 337.261 63.136 336.901 63.136H332.653ZM343.51 66.376C343.186 66.448 343.006 66.628 343.006 66.952V70.948H340.882C340.486 70.948 340.306 71.128 340.306 71.488V74.368C340.306 74.728 340.486 74.908 340.882 74.908H343.006V86.536C343.15 89.272 343.834 90.388 345.526 90.856C346.714 91.18 347.362 91.18 348.91 91.18C349.882 91.18 350.89 91.072 351.97 90.856C352.366 90.784 352.546 90.568 352.546 90.172V87.112C352.546 86.752 352.33 86.572 351.934 86.572H350.458C348.838 86.572 348.334 86.212 348.334 84.736V74.908H351.646C352.042 74.908 352.258 74.728 352.258 74.368V71.488C352.258 71.128 352.042 70.948 351.646 70.948H348.334V65.8C348.334 65.332 348.154 65.152 347.758 65.26L343.51 66.376ZM363.99 70.66C360.282 70.66 357.798 71.344 356.61 72.712C355.422 74.044 354.81 76.78 354.81 80.92C354.81 85.06 355.422 87.796 356.61 89.164C357.798 90.496 360.282 91.18 363.99 91.18C367.698 91.18 370.182 90.496 371.37 89.164C372.558 87.796 373.17 85.06 373.17 80.92C373.17 76.636 372.81 74.332 371.37 72.748C369.93 71.128 367.878 70.66 363.99 70.66ZM363.99 75.268C365.61 75.268 366.654 75.628 367.122 76.384C367.59 77.104 367.842 78.616 367.842 80.92C367.842 83.224 367.59 84.736 367.122 85.492C366.654 86.212 365.61 86.572 363.99 86.572C362.37 86.572 361.326 86.212 360.858 85.492C360.39 84.736 360.174 83.224 360.174 80.92C360.174 78.616 360.39 77.104 360.858 76.384C361.326 75.628 362.37 75.268 363.99 75.268ZM383.311 70.66C381.295 70.66 379.459 70.876 378.127 71.992C377.371 72.712 376.795 74.008 376.795 75.736V90.424C376.795 90.82 376.975 91 377.335 91H381.619C381.979 91 382.159 90.82 382.159 90.424V77.104C382.159 75.628 382.699 75.268 384.679 75.268H388.063C388.459 75.268 388.675 75.088 388.675 74.728V71.776C388.675 71.38 388.495 71.164 388.099 71.056C386.947 70.804 385.363 70.66 383.311 70.66ZM394.016 62.344C392 62.344 390.848 63.388 390.848 65.224C390.848 67.06 392 68.14 394.016 68.14C395.996 68.14 397.112 67.06 397.112 65.224C397.112 63.388 395.996 62.344 394.016 62.344ZM391.856 70.84C391.496 70.84 391.316 71.02 391.316 71.38V90.424C391.316 90.82 391.496 91 391.856 91H396.104C396.464 91 396.644 90.82 396.644 90.424V71.38C396.644 71.02 396.464 70.84 396.104 70.84H391.856ZM408.401 70.66C405.881 70.66 403.721 70.84 401.885 71.2C401.489 71.308 401.381 71.38 401.381 71.776V74.728C401.381 75.16 401.489 75.268 401.885 75.268H408.401C410.669 75.268 411.785 76.096 411.785 77.752V79.048H407.213C404.657 79.048 402.785 79.444 401.597 80.272C400.445 81.1 399.869 82.648 399.833 84.952C399.869 87.724 400.481 89.344 402.029 90.208C403.613 91.036 405.125 91.18 408.149 91.18C411.389 91.18 414.125 90.928 416.321 90.424C416.861 90.244 417.113 89.884 417.113 89.308V76.852C417.113 74.728 416.501 73.18 415.277 72.172C414.053 71.164 411.749 70.66 408.401 70.66ZM411.785 86.5C410.921 86.752 409.733 86.86 408.185 86.86C405.881 86.86 405.125 86.356 405.125 84.664C405.125 83.08 405.773 82.504 407.645 82.504H411.785V86.5Z" fill="#ED742D"/>
<path d="M210.584 190.66C206.948 190.66 204.536 191.344 203.348 192.712C202.16 194.044 201.548 196.78 201.548 200.92C201.548 205.024 202.16 207.76 203.348 209.128C204.536 210.496 206.948 211.18 210.584 211.18C213.572 211.18 215.84 211 217.46 210.676C217.784 210.64 217.964 210.424 217.964 210.1V207.112C217.964 206.752 217.784 206.572 217.424 206.572H211.052C209.432 206.572 208.352 206.32 207.812 205.852C207.272 205.384 207.02 204.34 206.984 202.756H218.288C219.188 202.756 219.44 202.504 219.44 201.784V200.668C219.404 196.672 218.828 194.008 217.64 192.676C216.488 191.344 214.148 190.66 210.584 190.66ZM210.584 195.268C213.212 195.268 214.04 196.132 214.076 199.264H206.948C206.984 196.132 207.848 195.268 210.584 195.268ZM242.884 190.624C240.76 190.624 238.672 191.02 236.62 191.812C235.036 191.056 232.876 190.66 230.176 190.66C227.44 190.66 225.136 190.876 223.264 191.272C222.94 191.344 222.796 191.524 222.796 191.812V210.424C222.796 210.82 222.976 211 223.336 211H227.584C227.944 211 228.124 210.82 228.124 210.424V195.268H230.572C232.156 195.268 232.696 195.304 233.308 195.88C233.92 196.42 234.028 197.392 234.028 199.444V210.424C234.028 210.82 234.208 211 234.532 211H238.816C239.14 211 239.32 210.82 239.32 210.424L239.356 199.3C239.356 197.68 239.212 196.42 238.888 195.484C239.788 195.34 240.76 195.268 241.804 195.268C244.9 195.412 245.044 195.376 245.224 200.668V210.424C245.224 210.82 245.404 211 245.764 211H250.012C250.372 211 250.552 210.82 250.552 210.424L250.588 198.292C250.588 195.304 250.012 193.288 248.896 192.244C247.78 191.164 245.764 190.624 242.884 190.624ZM263.394 190.66C260.982 190.66 258.354 190.876 255.474 191.344C254.97 191.452 254.718 191.776 254.718 192.244V217.696C254.718 218.056 254.898 218.236 255.258 218.236H259.506C259.866 218.236 260.046 218.056 260.046 217.696V210.964C261.306 211.108 262.782 211.18 264.474 211.18C267.75 211.18 269.946 210.46 271.062 209.02C272.214 207.58 272.79 204.772 272.79 200.632C272.79 196.708 272.178 194.044 270.918 192.712C269.658 191.344 267.174 190.66 263.394 190.66ZM263.646 195.268C265.338 195.268 266.382 195.628 266.814 196.384C267.246 197.14 267.462 198.652 267.462 200.92C267.462 203.26 267.21 204.808 266.706 205.492C266.238 206.176 265.086 206.536 263.286 206.536C262.17 206.536 261.09 206.464 260.046 206.32V195.268H263.646ZM282.889 190.66C280.873 190.66 279.037 190.876 277.705 191.992C276.949 192.712 276.373 194.008 276.373 195.736V210.424C276.373 210.82 276.553 211 276.913 211H281.197C281.557 211 281.737 210.82 281.737 210.424V197.104C281.737 195.628 282.277 195.268 284.257 195.268H287.641C288.037 195.268 288.253 195.088 288.253 194.728V191.776C288.253 191.38 288.073 191.164 287.677 191.056C286.525 190.804 284.941 190.66 282.889 190.66ZM299.318 190.66C295.682 190.66 293.27 191.344 292.082 192.712C290.894 194.044 290.282 196.78 290.282 200.92C290.282 205.024 290.894 207.76 292.082 209.128C293.27 210.496 295.682 211.18 299.318 211.18C302.306 211.18 304.574 211 306.194 210.676C306.518 210.64 306.698 210.424 306.698 210.1V207.112C306.698 206.752 306.518 206.572 306.158 206.572H299.786C298.166 206.572 297.086 206.32 296.546 205.852C296.006 205.384 295.754 204.34 295.718 202.756H307.022C307.922 202.756 308.174 202.504 308.174 201.784V200.668C308.138 196.672 307.562 194.008 306.374 192.676C305.222 191.344 302.882 190.66 299.318 190.66ZM299.318 195.268C301.946 195.268 302.774 196.132 302.81 199.264H295.682C295.718 196.132 296.582 195.268 299.318 195.268ZM319.27 190.66C313.834 190.66 311.098 192.136 311.098 195.844V196.528C311.098 199.336 312.322 201.172 314.77 202L319.198 203.584C320.746 204.124 321.178 204.556 321.178 205.276V205.6C321.178 206.572 320.602 206.824 318.694 206.824H311.314C310.918 206.824 310.702 207.004 310.702 207.364V210.28C310.702 210.64 310.918 210.82 311.314 210.82C313.618 211.072 316.102 211.18 318.766 211.18C323.77 211.18 326.434 209.848 326.434 205.924V205.348C326.434 202.648 325.534 200.956 322.654 199.948L318.046 198.328C316.894 197.932 316.318 197.356 316.318 196.672V196.312C316.318 195.448 317.038 195.016 318.442 195.016H324.922C325.318 195.016 325.534 194.836 325.534 194.44V191.704C325.534 191.416 325.354 191.236 324.958 191.128C323.158 190.804 321.25 190.66 319.27 190.66ZM337.229 190.66C334.709 190.66 332.549 190.84 330.713 191.2C330.317 191.308 330.209 191.38 330.209 191.776V194.728C330.209 195.16 330.317 195.268 330.713 195.268H337.229C339.497 195.268 340.613 196.096 340.613 197.752V199.048H336.041C333.485 199.048 331.613 199.444 330.425 200.272C329.273 201.1 328.697 202.648 328.661 204.952C328.697 207.724 329.309 209.344 330.857 210.208C332.441 211.036 333.953 211.18 336.977 211.18C340.217 211.18 342.953 210.928 345.149 210.424C345.689 210.244 345.941 209.884 345.941 209.308V196.852C345.941 194.728 345.329 193.18 344.105 192.172C342.881 191.164 340.577 190.66 337.229 190.66ZM340.613 206.5C339.749 206.752 338.561 206.86 337.013 206.86C334.709 206.86 333.953 206.356 333.953 204.664C333.953 203.08 334.601 202.504 336.473 202.504H340.613V206.5ZM357.837 190.66C352.401 190.66 349.665 192.136 349.665 195.844V196.528C349.665 199.336 350.889 201.172 353.337 202L357.765 203.584C359.313 204.124 359.745 204.556 359.745 205.276V205.6C359.745 206.572 359.169 206.824 357.261 206.824H349.881C349.485 206.824 349.269 207.004 349.269 207.364V210.28C349.269 210.64 349.485 210.82 349.881 210.82C352.185 211.072 354.669 211.18 357.333 211.18C362.337 211.18 365.001 209.848 365.001 205.924V205.348C365.001 202.648 364.101 200.956 361.221 199.948L356.613 198.328C355.461 197.932 354.885 197.356 354.885 196.672V196.312C354.885 195.448 355.605 195.016 357.009 195.016H363.489C363.885 195.016 364.101 194.836 364.101 194.44V191.704C364.101 191.416 363.921 191.236 363.525 191.128C361.725 190.804 359.817 190.66 357.837 190.66ZM209.612 220.66C207.092 220.66 204.932 220.84 203.096 221.2C202.7 221.308 202.592 221.38 202.592 221.776V224.728C202.592 225.16 202.7 225.268 203.096 225.268H209.612C211.88 225.268 212.996 226.096 212.996 227.752V229.048H208.424C205.868 229.048 203.996 229.444 202.808 230.272C201.656 231.1 201.08 232.648 201.044 234.952C201.08 237.724 201.692 239.344 203.24 240.208C204.824 241.036 206.336 241.18 209.36 241.18C212.6 241.18 215.336 240.928 217.532 240.424C218.072 240.244 218.324 239.884 218.324 239.308V226.852C218.324 224.728 217.712 223.18 216.488 222.172C215.264 221.164 212.96 220.66 209.612 220.66ZM212.996 236.5C212.132 236.752 210.944 236.86 209.396 236.86C207.092 236.86 206.336 236.356 206.336 234.664C206.336 233.08 206.984 232.504 208.856 232.504H212.996V236.5ZM223.998 216.376C223.674 216.448 223.494 216.628 223.494 216.952V220.948H221.37C220.974 220.948 220.794 221.128 220.794 221.488V224.368C220.794 224.728 220.974 224.908 221.37 224.908H223.494V236.536C223.638 239.272 224.322 240.388 226.014 240.856C227.202 241.18 227.85 241.18 229.398 241.18C230.37 241.18 231.378 241.072 232.458 240.856C232.854 240.784 233.034 240.568 233.034 240.172V237.112C233.034 236.752 232.818 236.572 232.422 236.572H230.946C229.326 236.572 228.822 236.212 228.822 234.736V224.908H232.134C232.53 224.908 232.746 224.728 232.746 224.368V221.488C232.746 221.128 232.53 220.948 232.134 220.948H228.822V215.8C228.822 215.332 228.642 215.152 228.246 215.26L223.998 216.376ZM244.334 220.66C240.698 220.66 238.286 221.344 237.098 222.712C235.91 224.044 235.298 226.78 235.298 230.92C235.298 235.024 235.91 237.76 237.098 239.128C238.286 240.496 240.698 241.18 244.334 241.18C247.322 241.18 249.59 241 251.21 240.676C251.534 240.64 251.714 240.424 251.714 240.1V237.112C251.714 236.752 251.534 236.572 251.174 236.572H244.802C243.182 236.572 242.102 236.32 241.562 235.852C241.022 235.384 240.77 234.34 240.734 232.756H252.038C252.938 232.756 253.19 232.504 253.19 231.784V230.668C253.154 226.672 252.578 224.008 251.39 222.676C250.238 221.344 247.898 220.66 244.334 220.66ZM244.334 225.268C246.962 225.268 247.79 226.132 247.826 229.264H240.698C240.734 226.132 241.598 225.268 244.334 225.268ZM265.69 220.66C261.766 220.66 258.922 220.876 257.086 221.272C256.726 221.344 256.546 221.38 256.546 221.812V240.424C256.546 240.82 256.726 241 257.086 241H261.37C261.73 241 261.91 240.82 261.91 240.424V225.268H265.186C267.058 225.268 267.706 225.304 268.318 226.06C269.002 226.816 269.038 227.968 269.038 230.668V240.424C269.038 240.82 269.218 241 269.578 241H273.826C274.222 241 274.402 240.82 274.402 240.424V229.3C274.402 225.556 274.042 223.54 272.602 222.244C271.198 220.948 269.326 220.66 265.69 220.66ZM291.19 213.136C290.83 213.136 290.65 213.316 290.65 213.712V220.876C289.318 220.732 287.842 220.66 286.222 220.66C282.946 220.66 280.75 221.38 279.634 222.784C278.518 224.188 277.978 226.924 277.978 230.956C277.978 235.024 278.59 237.76 279.814 239.128C281.038 240.496 283.522 241.18 287.302 241.18C289.714 241.18 292.342 240.964 295.222 240.496C295.726 240.424 295.978 240.136 295.978 239.596V213.712C295.978 213.316 295.798 213.136 295.438 213.136H291.19ZM290.65 236.32C289.642 236.5 288.49 236.572 287.194 236.572C285.502 236.572 284.422 236.212 283.954 235.456C283.522 234.7 283.306 233.188 283.306 230.92C283.306 228.544 283.558 227.032 284.026 226.348C284.494 225.664 285.646 225.304 287.41 225.304H290.65V236.32ZM302.946 212.344C300.93 212.344 299.778 213.388 299.778 215.224C299.778 217.06 300.93 218.14 302.946 218.14C304.926 218.14 306.042 217.06 306.042 215.224C306.042 213.388 304.926 212.344 302.946 212.344ZM300.786 220.84C300.426 220.84 300.246 221.02 300.246 221.38V240.424C300.246 240.82 300.426 241 300.786 241H305.034C305.394 241 305.574 240.82 305.574 240.424V221.38C305.574 221.02 305.394 220.84 305.034 220.84H300.786ZM322.479 213.136C322.119 213.136 321.939 213.316 321.939 213.712V220.876C320.607 220.732 319.131 220.66 317.511 220.66C314.235 220.66 312.039 221.38 310.923 222.784C309.807 224.188 309.267 226.924 309.267 230.956C309.267 235.024 309.879 237.76 311.103 239.128C312.327 240.496 314.811 241.18 318.591 241.18C321.003 241.18 323.631 240.964 326.511 240.496C327.015 240.424 327.267 240.136 327.267 239.596V213.712C327.267 213.316 327.087 213.136 326.727 213.136H322.479ZM321.939 236.32C320.931 236.5 319.779 236.572 318.483 236.572C316.791 236.572 315.711 236.212 315.243 235.456C314.811 234.7 314.595 233.188 314.595 230.92C314.595 228.544 314.847 227.032 315.315 226.348C315.783 225.664 316.935 225.304 318.699 225.304H321.939V236.32ZM338.987 220.66C336.467 220.66 334.307 220.84 332.471 221.2C332.075 221.308 331.967 221.38 331.967 221.776V224.728C331.967 225.16 332.075 225.268 332.471 225.268H338.987C341.255 225.268 342.371 226.096 342.371 227.752V229.048H337.799C335.243 229.048 333.371 229.444 332.183 230.272C331.031 231.1 330.455 232.648 330.419 234.952C330.455 237.724 331.067 239.344 332.615 240.208C334.199 241.036 335.711 241.18 338.735 241.18C341.975 241.18 344.711 240.928 346.907 240.424C347.447 240.244 347.699 239.884 347.699 239.308V226.852C347.699 224.728 347.087 223.18 345.863 222.172C344.639 221.164 342.335 220.66 338.987 220.66ZM342.371 236.5C341.507 236.752 340.319 236.86 338.771 236.86C336.467 236.86 335.711 236.356 335.711 234.664C335.711 233.08 336.359 232.504 338.231 232.504H342.371V236.5ZM359.594 220.66C354.158 220.66 351.422 222.136 351.422 225.844V226.528C351.422 229.336 352.646 231.172 355.094 232L359.522 233.584C361.07 234.124 361.502 234.556 361.502 235.276V235.6C361.502 236.572 360.926 236.824 359.018 236.824H351.638C351.242 236.824 351.026 237.004 351.026 237.364V240.28C351.026 240.64 351.242 240.82 351.638 240.82C353.942 241.072 356.426 241.18 359.09 241.18C364.094 241.18 366.758 239.848 366.758 235.924V235.348C366.758 232.648 365.858 230.956 362.978 229.948L358.37 228.328C357.218 227.932 356.642 227.356 356.642 226.672V226.312C356.642 225.448 357.362 225.016 358.766 225.016H365.246C365.642 225.016 365.858 224.836 365.858 224.44V221.704C365.858 221.416 365.678 221.236 365.282 221.128C363.482 220.804 361.574 220.66 359.594 220.66Z" fill="#FF9150"/>
<g filter="url(#filter0_d)">
<path d="M75.424 268.1C74.272 268.1 73.804 268.388 73.372 269.54L66.676 287.072L59.98 269.54C59.512 268.424 59.08 268.136 57.928 268.136H53.572C53.32 268.136 53.14 268.316 53.104 268.712L50.512 295.424C50.476 295.82 50.656 296 51.052 296H55.624C55.948 296 56.128 295.82 56.164 295.424L57.748 278.144L64.192 294.596C64.372 294.956 64.624 295.136 64.948 295.136H68.368C68.728 295.136 68.98 294.956 69.124 294.596L75.604 278.144L77.188 295.424C77.224 295.82 77.404 296 77.728 296H82.3C82.696 296 82.876 295.82 82.84 295.424L80.248 268.676C80.212 268.28 80.032 268.1 79.78 268.1H75.424ZM89.2272 267.344C87.2112 267.344 86.0592 268.388 86.0592 270.224C86.0592 272.06 87.2112 273.14 89.2272 273.14C91.2072 273.14 92.3232 272.06 92.3232 270.224C92.3232 268.388 91.2072 267.344 89.2272 267.344ZM87.0672 275.84C86.7072 275.84 86.5272 276.02 86.5272 276.38V295.424C86.5272 295.82 86.7072 296 87.0672 296H91.3152C91.6752 296 91.8552 295.82 91.8552 295.424V276.38C91.8552 276.02 91.6752 275.84 91.3152 275.84H87.0672ZM96.7 268.136C96.34 268.136 96.16 268.316 96.16 268.676V295.424C96.16 295.82 96.34 296 96.7 296H100.948C101.308 296 101.488 295.82 101.488 295.424V268.676C101.488 268.316 101.308 268.136 100.948 268.136H96.7ZM106.333 268.136C105.973 268.136 105.793 268.316 105.793 268.712V295.424C105.793 295.82 105.973 296 106.297 296H110.617C110.977 296 111.157 295.82 111.157 295.424V280.268H114.397C116.845 280.268 117.529 280.484 117.961 281.96C118.177 282.68 118.285 283.904 118.285 285.668V295.424C118.285 295.82 118.465 296 118.789 296H123.073C123.433 296 123.613 295.82 123.613 295.424V284.3C123.613 280.556 123.253 278.54 121.813 277.244C120.409 275.948 118.573 275.66 114.937 275.66C113.497 275.66 112.237 275.732 111.121 275.84V268.712C111.121 268.316 110.941 268.136 110.581 268.136H106.333ZM135.253 275.66C132.733 275.66 130.573 275.84 128.737 276.2C128.341 276.308 128.233 276.38 128.233 276.776V279.728C128.233 280.16 128.341 280.268 128.737 280.268H135.253C137.521 280.268 138.637 281.096 138.637 282.752V284.048H134.065C131.509 284.048 129.637 284.444 128.449 285.272C127.297 286.1 126.721 287.648 126.685 289.952C126.721 292.724 127.333 294.344 128.881 295.208C130.465 296.036 131.977 296.18 135.001 296.18C138.241 296.18 140.977 295.928 143.173 295.424C143.713 295.244 143.965 294.884 143.965 294.308V281.852C143.965 279.728 143.353 278.18 142.129 277.172C140.905 276.164 138.601 275.66 135.253 275.66ZM138.637 291.5C137.773 291.752 136.585 291.86 135.037 291.86C132.733 291.86 131.977 291.356 131.977 289.664C131.977 288.08 132.625 287.504 134.497 287.504H138.637V291.5ZM154.6 275.66C152.584 275.66 150.748 275.876 149.416 276.992C148.66 277.712 148.084 279.008 148.084 280.736V295.424C148.084 295.82 148.264 296 148.624 296H152.908C153.268 296 153.448 295.82 153.448 295.424V282.104C153.448 280.628 153.988 280.268 155.968 280.268H159.352C159.748 280.268 159.964 280.088 159.964 279.728V276.776C159.964 276.38 159.784 276.164 159.388 276.056C158.236 275.804 156.652 275.66 154.6 275.66ZM171.029 275.66C167.393 275.66 164.981 276.344 163.793 277.712C162.605 279.044 161.993 281.78 161.993 285.92C161.993 290.024 162.605 292.76 163.793 294.128C164.981 295.496 167.393 296.18 171.029 296.18C174.017 296.18 176.285 296 177.905 295.676C178.229 295.64 178.409 295.424 178.409 295.1V292.112C178.409 291.752 178.229 291.572 177.869 291.572H171.497C169.877 291.572 168.797 291.32 168.257 290.852C167.717 290.384 167.465 289.34 167.429 287.756H178.733C179.633 287.756 179.885 287.504 179.885 286.784V285.668C179.849 281.672 179.273 279.008 178.085 277.676C176.933 276.344 174.593 275.66 171.029 275.66ZM171.029 280.268C173.657 280.268 174.485 281.132 174.521 284.264H167.393C167.429 281.132 168.293 280.268 171.029 280.268ZM190.981 275.66C185.545 275.66 182.809 277.136 182.809 280.844V281.528C182.809 284.336 184.033 286.172 186.481 287L190.909 288.584C192.457 289.124 192.889 289.556 192.889 290.276V290.6C192.889 291.572 192.313 291.824 190.405 291.824H183.025C182.629 291.824 182.413 292.004 182.413 292.364V295.28C182.413 295.64 182.629 295.82 183.025 295.82C185.329 296.072 187.813 296.18 190.477 296.18C195.481 296.18 198.145 294.848 198.145 290.924V290.348C198.145 287.648 197.245 285.956 194.365 284.948L189.757 283.328C188.605 282.932 188.029 282.356 188.029 281.672V281.312C188.029 280.448 188.749 280.016 190.153 280.016H196.633C197.029 280.016 197.245 279.836 197.245 279.44V276.704C197.245 276.416 197.065 276.236 196.669 276.128C194.869 275.804 192.961 275.66 190.981 275.66ZM221.506 268.136C221.146 268.136 220.966 268.316 220.966 268.712V275.876C219.634 275.732 218.158 275.66 216.538 275.66C213.262 275.66 211.066 276.38 209.95 277.784C208.834 279.188 208.294 281.924 208.294 285.956C208.294 290.024 208.906 292.76 210.13 294.128C211.354 295.496 213.838 296.18 217.618 296.18C220.03 296.18 222.658 295.964 225.538 295.496C226.042 295.424 226.294 295.136 226.294 294.596V268.712C226.294 268.316 226.114 268.136 225.754 268.136H221.506ZM220.966 291.32C219.958 291.5 218.806 291.572 217.51 291.572C215.818 291.572 214.738 291.212 214.27 290.456C213.838 289.7 213.622 288.188 213.622 285.92C213.622 283.544 213.874 282.032 214.342 281.348C214.81 280.664 215.962 280.304 217.726 280.304H220.966V291.32ZM238.986 275.66C235.35 275.66 232.938 276.344 231.75 277.712C230.562 279.044 229.95 281.78 229.95 285.92C229.95 290.024 230.562 292.76 231.75 294.128C232.938 295.496 235.35 296.18 238.986 296.18C241.974 296.18 244.242 296 245.862 295.676C246.186 295.64 246.366 295.424 246.366 295.1V292.112C246.366 291.752 246.186 291.572 245.826 291.572H239.454C237.834 291.572 236.754 291.32 236.214 290.852C235.674 290.384 235.422 289.34 235.386 287.756H246.69C247.59 287.756 247.842 287.504 247.842 286.784V285.668C247.806 281.672 247.23 279.008 246.042 277.676C244.89 276.344 242.55 275.66 238.986 275.66ZM238.986 280.268C241.614 280.268 242.442 281.132 242.478 284.264H235.35C235.386 281.132 236.25 280.268 238.986 280.268ZM59.8 305.66C57.388 305.66 54.76 305.876 51.88 306.344C51.376 306.452 51.124 306.776 51.124 307.244V332.696C51.124 333.056 51.304 333.236 51.664 333.236H55.912C56.272 333.236 56.452 333.056 56.452 332.696V325.964C57.712 326.108 59.188 326.18 60.88 326.18C64.156 326.18 66.352 325.46 67.468 324.02C68.62 322.58 69.196 319.772 69.196 315.632C69.196 311.708 68.584 309.044 67.324 307.712C66.064 306.344 63.58 305.66 59.8 305.66ZM60.052 310.268C61.744 310.268 62.788 310.628 63.22 311.384C63.652 312.14 63.868 313.652 63.868 315.92C63.868 318.26 63.616 319.808 63.112 320.492C62.644 321.176 61.492 321.536 59.692 321.536C58.576 321.536 57.496 321.464 56.452 321.32V310.268H60.052ZM81.2754 305.66C77.6394 305.66 75.2274 306.344 74.0394 307.712C72.8514 309.044 72.2394 311.78 72.2394 315.92C72.2394 320.024 72.8514 322.76 74.0394 324.128C75.2274 325.496 77.6394 326.18 81.2754 326.18C84.2634 326.18 86.5314 326 88.1514 325.676C88.4754 325.64 88.6554 325.424 88.6554 325.1V322.112C88.6554 321.752 88.4754 321.572 88.1154 321.572H81.7434C80.1234 321.572 79.0434 321.32 78.5034 320.852C77.9634 320.384 77.7114 319.34 77.6754 317.756H88.9794C89.8794 317.756 90.1314 317.504 90.1314 316.784V315.668C90.0954 311.672 89.5194 309.008 88.3314 307.676C87.1794 306.344 84.8394 305.66 81.2754 305.66ZM81.2754 310.268C83.9034 310.268 84.7314 311.132 84.7674 314.264H77.6394C77.6754 311.132 78.5394 310.268 81.2754 310.268ZM101.227 305.66C95.7913 305.66 93.0553 307.136 93.0553 310.844V311.528C93.0553 314.336 94.2793 316.172 96.7273 317L101.155 318.584C102.703 319.124 103.135 319.556 103.135 320.276V320.6C103.135 321.572 102.559 321.824 100.651 321.824H93.2713C92.8753 321.824 92.6593 322.004 92.6593 322.364V325.28C92.6593 325.64 92.8753 325.82 93.2713 325.82C95.5753 326.072 98.0593 326.18 100.723 326.18C105.727 326.18 108.391 324.848 108.391 320.924V320.348C108.391 317.648 107.491 315.956 104.611 314.948L100.003 313.328C98.8513 312.932 98.2753 312.356 98.2753 311.672V311.312C98.2753 310.448 98.9953 310.016 100.399 310.016H106.879C107.275 310.016 107.491 309.836 107.491 309.44V306.704C107.491 306.416 107.311 306.236 106.915 306.128C105.115 305.804 103.207 305.66 101.227 305.66ZM119.438 305.66C114.002 305.66 111.266 307.136 111.266 310.844V311.528C111.266 314.336 112.49 316.172 114.938 317L119.366 318.584C120.914 319.124 121.346 319.556 121.346 320.276V320.6C121.346 321.572 120.77 321.824 118.862 321.824H111.482C111.086 321.824 110.87 322.004 110.87 322.364V325.28C110.87 325.64 111.086 325.82 111.482 325.82C113.786 326.072 116.27 326.18 118.934 326.18C123.938 326.18 126.602 324.848 126.602 320.924V320.348C126.602 317.648 125.702 315.956 122.822 314.948L118.214 313.328C117.062 312.932 116.486 312.356 116.486 311.672V311.312C116.486 310.448 117.206 310.016 118.61 310.016H125.09C125.486 310.016 125.702 309.836 125.702 309.44V306.704C125.702 306.416 125.522 306.236 125.126 306.128C123.326 305.804 121.418 305.66 119.438 305.66ZM138.513 305.66C134.805 305.66 132.321 306.344 131.133 307.712C129.945 309.044 129.333 311.78 129.333 315.92C129.333 320.06 129.945 322.796 131.133 324.164C132.321 325.496 134.805 326.18 138.513 326.18C142.221 326.18 144.705 325.496 145.893 324.164C147.081 322.796 147.693 320.06 147.693 315.92C147.693 311.636 147.333 309.332 145.893 307.748C144.453 306.128 142.401 305.66 138.513 305.66ZM138.513 310.268C140.133 310.268 141.177 310.628 141.645 311.384C142.113 312.104 142.365 313.616 142.365 315.92C142.365 318.224 142.113 319.736 141.645 320.492C141.177 321.212 140.133 321.572 138.513 321.572C136.893 321.572 135.849 321.212 135.381 320.492C134.913 319.736 134.697 318.224 134.697 315.92C134.697 313.616 134.913 312.104 135.381 311.384C135.849 310.628 136.893 310.268 138.513 310.268ZM158.842 305.66C156.322 305.66 154.162 305.84 152.326 306.2C151.93 306.308 151.822 306.38 151.822 306.776V309.728C151.822 310.16 151.93 310.268 152.326 310.268H158.842C161.11 310.268 162.226 311.096 162.226 312.752V314.048H157.654C155.098 314.048 153.226 314.444 152.038 315.272C150.886 316.1 150.31 317.648 150.274 319.952C150.31 322.724 150.922 324.344 152.47 325.208C154.054 326.036 155.566 326.18 158.59 326.18C161.83 326.18 164.566 325.928 166.762 325.424C167.302 325.244 167.554 324.884 167.554 324.308V311.852C167.554 309.728 166.942 308.18 165.718 307.172C164.494 306.164 162.19 305.66 158.842 305.66ZM162.226 321.5C161.362 321.752 160.174 321.86 158.626 321.86C156.322 321.86 155.566 321.356 155.566 319.664C155.566 318.08 156.214 317.504 158.086 317.504H162.226V321.5ZM179.45 305.66C174.014 305.66 171.278 307.136 171.278 310.844V311.528C171.278 314.336 172.502 316.172 174.95 317L179.378 318.584C180.926 319.124 181.358 319.556 181.358 320.276V320.6C181.358 321.572 180.782 321.824 178.874 321.824H171.494C171.098 321.824 170.882 322.004 170.882 322.364V325.28C170.882 325.64 171.098 325.82 171.494 325.82C173.798 326.072 176.282 326.18 178.946 326.18C183.95 326.18 186.614 324.848 186.614 320.924V320.348C186.614 317.648 185.714 315.956 182.834 314.948L178.226 313.328C177.074 312.932 176.498 312.356 176.498 311.672V311.312C176.498 310.448 177.218 310.016 178.622 310.016H185.102C185.498 310.016 185.714 309.836 185.714 309.44V306.704C185.714 306.416 185.534 306.236 185.138 306.128C183.338 305.804 181.43 305.66 179.45 305.66ZM200.075 297.344C198.059 297.344 196.907 298.388 196.907 300.224C196.907 302.06 198.059 303.14 200.075 303.14C202.055 303.14 203.171 302.06 203.171 300.224C203.171 298.388 202.055 297.344 200.075 297.344ZM197.915 305.84C197.555 305.84 197.375 306.02 197.375 306.38V325.424C197.375 325.82 197.555 326 197.915 326H202.163C202.523 326 202.703 325.82 202.703 325.424V306.38C202.703 306.02 202.523 305.84 202.163 305.84H197.915ZM227.06 305.624C224.936 305.624 222.848 306.02 220.796 306.812C219.212 306.056 217.052 305.66 214.352 305.66C211.616 305.66 209.312 305.876 207.44 306.272C207.116 306.344 206.972 306.524 206.972 306.812V325.424C206.972 325.82 207.152 326 207.512 326H211.76C212.12 326 212.3 325.82 212.3 325.424V310.268H214.748C216.332 310.268 216.872 310.304 217.484 310.88C218.096 311.42 218.204 312.392 218.204 314.444V325.424C218.204 325.82 218.384 326 218.708 326H222.992C223.316 326 223.496 325.82 223.496 325.424L223.532 314.3C223.532 312.68 223.388 311.42 223.064 310.484C223.964 310.34 224.936 310.268 225.98 310.268C229.076 310.412 229.22 310.376 229.4 315.668V325.424C229.4 325.82 229.58 326 229.94 326H234.188C234.548 326 234.728 325.82 234.728 325.424L234.764 313.292C234.764 310.304 234.188 308.288 233.072 307.244C231.956 306.164 229.94 305.624 227.06 305.624ZM247.57 305.66C245.158 305.66 242.53 305.876 239.65 306.344C239.146 306.452 238.894 306.776 238.894 307.244V332.696C238.894 333.056 239.074 333.236 239.434 333.236H243.682C244.042 333.236 244.222 333.056 244.222 332.696V325.964C245.482 326.108 246.958 326.18 248.65 326.18C251.926 326.18 254.122 325.46 255.238 324.02C256.39 322.58 256.966 319.772 256.966 315.632C256.966 311.708 256.354 309.044 255.094 307.712C253.834 306.344 251.35 305.66 247.57 305.66ZM247.822 310.268C249.514 310.268 250.558 310.628 250.99 311.384C251.422 312.14 251.638 313.652 251.638 315.92C251.638 318.26 251.386 319.808 250.882 320.492C250.414 321.176 249.262 321.536 247.462 321.536C246.346 321.536 245.266 321.464 244.222 321.32V310.268H247.822ZM268.073 305.66C265.553 305.66 263.393 305.84 261.557 306.2C261.161 306.308 261.053 306.38 261.053 306.776V309.728C261.053 310.16 261.161 310.268 261.557 310.268H268.073C270.341 310.268 271.457 311.096 271.457 312.752V314.048H266.885C264.329 314.048 262.457 314.444 261.269 315.272C260.117 316.1 259.541 317.648 259.505 319.952C259.541 322.724 260.153 324.344 261.701 325.208C263.285 326.036 264.797 326.18 267.821 326.18C271.061 326.18 273.797 325.928 275.993 325.424C276.533 325.244 276.785 324.884 276.785 324.308V311.852C276.785 309.728 276.173 308.18 274.949 307.172C273.725 306.164 271.421 305.66 268.073 305.66ZM271.457 321.5C270.593 321.752 269.405 321.86 267.857 321.86C265.553 321.86 264.797 321.356 264.797 319.664C264.797 318.08 265.445 317.504 267.317 317.504H271.457V321.5ZM289.508 305.66C285.584 305.66 283.46 306.056 282.056 307.748C280.724 309.368 280.364 311.6 280.364 315.92C280.364 320.24 280.724 322.436 282.056 324.128C283.46 325.748 285.584 326.18 289.508 326.18C291.92 326.18 293.864 326 295.376 325.676C295.772 325.604 295.988 325.388 295.988 324.992V322.112C295.988 321.752 295.772 321.572 295.376 321.572H289.508C287.888 321.572 286.844 321.212 286.376 320.492C285.908 319.736 285.692 318.224 285.692 315.92C285.692 313.58 285.908 312.068 286.376 311.348C286.844 310.628 287.888 310.268 289.508 310.268H295.376C295.772 310.268 295.988 310.088 295.988 309.692V306.848C295.988 306.452 295.772 306.2 295.376 306.128C293.828 305.804 291.884 305.66 289.508 305.66ZM301.127 301.376C300.803 301.448 300.623 301.628 300.623 301.952V305.948H298.499C298.103 305.948 297.923 306.128 297.923 306.488V309.368C297.923 309.728 298.103 309.908 298.499 309.908H300.623V321.536C300.767 324.272 301.451 325.388 303.143 325.856C304.331 326.18 304.979 326.18 306.527 326.18C307.499 326.18 308.507 326.072 309.587 325.856C309.983 325.784 310.163 325.568 310.163 325.172V322.112C310.163 321.752 309.947 321.572 309.551 321.572H308.075C306.455 321.572 305.951 321.212 305.951 319.736V309.908H309.263C309.659 309.908 309.875 309.728 309.875 309.368V306.488C309.875 306.128 309.659 305.948 309.263 305.948H305.951V300.8C305.951 300.332 305.771 300.152 305.375 300.26L301.127 301.376ZM320.491 305.66C317.971 305.66 315.811 305.84 313.975 306.2C313.579 306.308 313.471 306.38 313.471 306.776V309.728C313.471 310.16 313.579 310.268 313.975 310.268H320.491C322.759 310.268 323.875 311.096 323.875 312.752V314.048H319.303C316.747 314.048 314.875 314.444 313.687 315.272C312.535 316.1 311.959 317.648 311.923 319.952C311.959 322.724 312.571 324.344 314.119 325.208C315.703 326.036 317.215 326.18 320.239 326.18C323.479 326.18 326.215 325.928 328.411 325.424C328.951 325.244 329.203 324.884 329.203 324.308V311.852C329.203 309.728 328.591 308.18 327.367 307.172C326.143 306.164 323.839 305.66 320.491 305.66ZM323.875 321.5C323.011 321.752 321.823 321.86 320.275 321.86C317.971 321.86 317.215 321.356 317.215 319.664C317.215 318.08 317.863 317.504 319.735 317.504H323.875V321.5ZM345.994 298.136C345.634 298.136 345.454 298.316 345.454 298.712V305.876C344.122 305.732 342.646 305.66 341.026 305.66C337.75 305.66 335.554 306.38 334.438 307.784C333.322 309.188 332.782 311.924 332.782 315.956C332.782 320.024 333.394 322.76 334.618 324.128C335.842 325.496 338.326 326.18 342.106 326.18C344.518 326.18 347.146 325.964 350.026 325.496C350.53 325.424 350.782 325.136 350.782 324.596V298.712C350.782 298.316 350.602 298.136 350.242 298.136H345.994ZM345.454 321.32C344.446 321.5 343.294 321.572 341.998 321.572C340.306 321.572 339.226 321.212 338.758 320.456C338.326 319.7 338.11 318.188 338.11 315.92C338.11 313.544 338.362 312.032 338.83 311.348C339.298 310.664 340.45 310.304 342.214 310.304H345.454V321.32ZM362.503 305.66C359.983 305.66 357.823 305.84 355.987 306.2C355.591 306.308 355.483 306.38 355.483 306.776V309.728C355.483 310.16 355.591 310.268 355.987 310.268H362.503C364.771 310.268 365.887 311.096 365.887 312.752V314.048H361.315C358.759 314.048 356.887 314.444 355.699 315.272C354.547 316.1 353.971 317.648 353.935 319.952C353.971 322.724 354.583 324.344 356.131 325.208C357.715 326.036 359.227 326.18 362.251 326.18C365.491 326.18 368.227 325.928 370.423 325.424C370.963 325.244 371.215 324.884 371.215 324.308V311.852C371.215 309.728 370.603 308.18 369.379 307.172C368.155 306.164 365.851 305.66 362.503 305.66ZM365.887 321.5C365.023 321.752 363.835 321.86 362.287 321.86C359.983 321.86 359.227 321.356 359.227 319.664C359.227 318.08 359.875 317.504 361.747 317.504H365.887V321.5ZM383.11 305.66C377.674 305.66 374.938 307.136 374.938 310.844V311.528C374.938 314.336 376.162 316.172 378.61 317L383.038 318.584C384.586 319.124 385.018 319.556 385.018 320.276V320.6C385.018 321.572 384.442 321.824 382.534 321.824H375.154C374.758 321.824 374.542 322.004 374.542 322.364V325.28C374.542 325.64 374.758 325.82 375.154 325.82C377.458 326.072 379.942 326.18 382.606 326.18C387.61 326.18 390.274 324.848 390.274 320.924V320.348C390.274 317.648 389.374 315.956 386.494 314.948L381.886 313.328C380.734 312.932 380.158 312.356 380.158 311.672V311.312C380.158 310.448 380.878 310.016 382.282 310.016H388.762C389.158 310.016 389.374 309.836 389.374 309.44V306.704C389.374 306.416 389.194 306.236 388.798 306.128C386.998 305.804 385.09 305.66 383.11 305.66Z" fill="white"/>
</g>
<path d="M230.692 128.66C226.768 128.66 224.644 129.056 223.24 130.748C221.908 132.368 221.548 134.6 221.548 138.92C221.548 143.24 221.908 145.436 223.24 147.128C224.644 148.748 226.768 149.18 230.692 149.18C233.104 149.18 235.048 149 236.56 148.676C236.956 148.604 237.172 148.388 237.172 147.992V145.112C237.172 144.752 236.956 144.572 236.56 144.572H230.692C229.072 144.572 228.028 144.212 227.56 143.492C227.092 142.736 226.876 141.224 226.876 138.92C226.876 136.58 227.092 135.068 227.56 134.348C228.028 133.628 229.072 133.268 230.692 133.268H236.56C236.956 133.268 237.172 133.088 237.172 132.692V129.848C237.172 129.452 236.956 129.2 236.56 129.128C235.012 128.804 233.068 128.66 230.692 128.66ZM243.247 120.344C241.231 120.344 240.079 121.388 240.079 123.224C240.079 125.06 241.231 126.14 243.247 126.14C245.227 126.14 246.343 125.06 246.343 123.224C246.343 121.388 245.227 120.344 243.247 120.344ZM241.087 128.84C240.727 128.84 240.547 129.02 240.547 129.38V148.424C240.547 148.82 240.727 149 241.087 149H245.335C245.695 149 245.875 148.82 245.875 148.424V129.38C245.875 129.02 245.695 128.84 245.335 128.84H241.087ZM262.78 121.136C262.42 121.136 262.24 121.316 262.24 121.712V128.876C260.908 128.732 259.432 128.66 257.812 128.66C254.536 128.66 252.34 129.38 251.224 130.784C250.108 132.188 249.568 134.924 249.568 138.956C249.568 143.024 250.18 145.76 251.404 147.128C252.628 148.496 255.112 149.18 258.892 149.18C261.304 149.18 263.932 148.964 266.812 148.496C267.316 148.424 267.568 148.136 267.568 147.596V121.712C267.568 121.316 267.388 121.136 267.028 121.136H262.78ZM262.24 144.32C261.232 144.5 260.08 144.572 258.784 144.572C257.092 144.572 256.012 144.212 255.544 143.456C255.112 142.7 254.896 141.188 254.896 138.92C254.896 136.544 255.148 135.032 255.616 134.348C256.084 133.664 257.236 133.304 259 133.304H262.24V144.32ZM279.288 128.66C276.768 128.66 274.608 128.84 272.772 129.2C272.376 129.308 272.268 129.38 272.268 129.776V132.728C272.268 133.16 272.376 133.268 272.772 133.268H279.288C281.556 133.268 282.672 134.096 282.672 135.752V137.048H278.1C275.544 137.048 273.672 137.444 272.484 138.272C271.332 139.1 270.756 140.648 270.72 142.952C270.756 145.724 271.368 147.344 272.916 148.208C274.5 149.036 276.012 149.18 279.036 149.18C282.276 149.18 285.012 148.928 287.208 148.424C287.748 148.244 288 147.884 288 147.308V134.852C288 132.728 287.388 131.18 286.164 130.172C284.94 129.164 282.636 128.66 279.288 128.66ZM282.672 144.5C281.808 144.752 280.62 144.86 279.072 144.86C276.768 144.86 276.012 144.356 276.012 142.664C276.012 141.08 276.66 140.504 278.532 140.504H282.672V144.5ZM304.791 121.136C304.431 121.136 304.251 121.316 304.251 121.712V128.876C302.919 128.732 301.443 128.66 299.823 128.66C296.547 128.66 294.351 129.38 293.235 130.784C292.119 132.188 291.579 134.924 291.579 138.956C291.579 143.024 292.191 145.76 293.415 147.128C294.639 148.496 297.123 149.18 300.903 149.18C303.315 149.18 305.943 148.964 308.823 148.496C309.327 148.424 309.579 148.136 309.579 147.596V121.712C309.579 121.316 309.399 121.136 309.039 121.136H304.791ZM304.251 144.32C303.243 144.5 302.091 144.572 300.795 144.572C299.103 144.572 298.023 144.212 297.555 143.456C297.123 142.7 296.907 141.188 296.907 138.92C296.907 136.544 297.159 135.032 297.627 134.348C298.095 133.664 299.247 133.304 301.011 133.304H304.251V144.32ZM322.271 128.66C318.636 128.66 316.224 129.344 315.036 130.712C313.848 132.044 313.236 134.78 313.236 138.92C313.236 143.024 313.848 145.76 315.036 147.128C316.224 148.496 318.636 149.18 322.271 149.18C325.26 149.18 327.528 149 329.148 148.676C329.472 148.64 329.652 148.424 329.652 148.1V145.112C329.652 144.752 329.472 144.572 329.112 144.572H322.74C321.12 144.572 320.04 144.32 319.5 143.852C318.96 143.384 318.708 142.34 318.672 140.756H329.976C330.876 140.756 331.128 140.504 331.128 139.784V138.668C331.092 134.672 330.516 132.008 329.328 130.676C328.176 129.344 325.836 128.66 322.271 128.66ZM322.271 133.268C324.9 133.268 325.728 134.132 325.764 137.264H318.636C318.672 134.132 319.536 133.268 322.271 133.268ZM342.223 128.66C336.787 128.66 334.051 130.136 334.051 133.844V134.528C334.051 137.336 335.275 139.172 337.723 140L342.151 141.584C343.699 142.124 344.131 142.556 344.131 143.276V143.6C344.131 144.572 343.555 144.824 341.647 144.824H334.267C333.871 144.824 333.655 145.004 333.655 145.364V148.28C333.655 148.64 333.871 148.82 334.267 148.82C336.571 149.072 339.055 149.18 341.719 149.18C346.723 149.18 349.387 147.848 349.387 143.924V143.348C349.387 140.648 348.487 138.956 345.607 137.948L340.999 136.328C339.847 135.932 339.271 135.356 339.271 134.672V134.312C339.271 133.448 339.991 133.016 341.395 133.016H347.875C348.271 133.016 348.487 132.836 348.487 132.44V129.704C348.487 129.416 348.307 129.236 347.911 129.128C346.111 128.804 344.203 128.66 342.223 128.66Z" fill="#742B64"/>
<defs>
<filter id="filter0_d" x="14.5073" y="243.344" width="403.767" height="129.892" filterUnits="userSpaceOnUse" color-interpolation-filters="sRGB">
<feFlood flood-opacity="0" result="BackgroundImageFix"/>
<feColorMatrix in="SourceAlpha" type="matrix" values="0 0 0 0 0 0 0 0 0 0 0 0 0 0 0 0 0 0 127 0"/>
<feOffset dx="-4" dy="8"/>
<feGaussianBlur stdDeviation="16"/>
<feColorMatrix type="matrix" values="0 0 0 0 0 0 0 0 0 0 0 0 0 0 0 0 0 0 0.15 0"/>
<feBlend mode="normal" in2="BackgroundImageFix" result="effect1_dropShadow"/>
<feBlend mode="normal" in="SourceGraphic" in2="effect1_dropShadow" result="shape"/>
</filter>
<linearGradient id="paint0_linear" x1="221.532" y1="-10.7442" x2="183.485" y2="93.901" gradientUnits="userSpaceOnUse">
<stop stop-color="#9D2F85"/>
<stop offset="1" stop-color="#742B64"/>
</linearGradient>
<linearGradient id="paint1_linear" x1="155" y1="167" x2="97" y2="265" gradientUnits="userSpaceOnUse">
<stop stop-color="#9D2F85"/>
<stop offset="1" stop-color="#742B64"/>
</linearGradient>
<linearGradient id="paint2_linear" x1="187" y1="93" x2="145" y2="187" gradientUnits="userSpaceOnUse">
<stop stop-color="#FF9150"/>
<stop offset="1" stop-color="#F0762D"/>
</linearGradient>
</defs>
</svg>
