<svg id="Layer_1" enable-background="new 0 0 256 256" height="512" viewBox="0 0 256 256" width="512" xmlns="http://www.w3.org/2000/svg"><g><g><path d="m194.076 82.919h-53.294v-7.251c0-14.124 11.449-25.573 25.573-25.573h2.148c14.124 0 25.573 11.449 25.573 25.573z" fill="#f46275"/><circle cx="167.429" cy="35.214" fill="#9e9e9e" r="14.881"/><circle cx="88.571" cy="35.214" fill="#9e9e9e" r="14.881"/><g><path d="m91.749 35.214c0-4.819 2.3-9.09 5.852-11.809-2.506-1.919-5.629-3.072-9.029-3.072-8.219 0-14.881 6.662-14.881 14.881s6.662 14.881 14.881 14.881c3.4 0 6.523-1.153 9.029-3.072-3.552-2.719-5.852-6.99-5.852-11.809z" fill="#707070"/></g><g><path d="m164.251 35.214c0-4.819-2.3-9.09-5.852-11.809 2.506-1.919 5.629-3.072 9.029-3.072 8.219 0 14.881 6.662 14.881 14.881s-6.662 14.881-14.881 14.881c-3.4 0-6.523-1.153-9.029-3.072 3.552-2.719 5.852-6.99 5.852-11.809z" fill="#cecece"/></g><path d="m115.218 82.919h-53.294v-7.251c0-14.124 11.449-25.573 25.573-25.573h2.148c14.124 0 25.573 11.449 25.573 25.573z" fill="#f46275"/><g><path d="m97.6 51.363c-2.505-.819-5.177-1.268-7.955-1.268h-2.148c-14.124 0-25.573 11.449-25.573 25.573v7.251h18.059v-7.251c-.001-11.345 7.39-20.959 17.617-24.305z" fill="#f43075"/></g><g><path d="m158.4 51.363c2.505-.819 5.177-1.268 7.955-1.268h2.148c14.124 0 25.573 11.449 25.573 25.573v7.251h-18.059v-7.251c.001-11.345-7.39-20.959-17.617-24.305z" fill="#f48875"/></g><path d="m195.769 96.919h-135.538c-3.866 0-7-3.134-7-7 0-3.866 3.134-7 7-7h135.539c3.866 0 7 3.134 7 7-.001 3.866-3.135 7-7.001 7z" fill="#9e9e9e"/><g><path d="m195.769 82.919h-18.059c3.866 0 7 3.134 7 7s-3.134 7-7 7h18.059c3.866 0 7-3.134 7-7 0-3.865-3.134-7-7-7z" fill="#cecece"/></g><g><path d="m71.289 89.919c0-3.866 3.134-7 7-7h-18.058c-3.866 0-7 3.134-7 7s3.134 7 7 7h18.059c-3.867 0-7.001-3.133-7.001-7z" fill="#707070"/></g><path d="m193.667 96.919h-65.667-65.667l23.204 70.725c.674 2.053 2.59 3.441 4.751 3.441h6.462v31.083l62.5-12.417v-18.667h6.462c2.161 0 4.077-1.388 4.751-3.441z" fill="#63bce7"/><g><path d="m175.608 96.919-23.204 70.725c-.674 2.053-2.59 3.441-4.751 3.441h-6.462v22.254l18.059-3.588v-18.667h6.462c2.161 0 4.077-1.388 4.751-3.441l23.204-70.725h-18.059z" fill="#67dceb"/></g><g><path d="m108.347 171.086c-2.161 0-4.077-1.388-4.751-3.441l-23.204-70.726h-18.059l23.204 70.725c.674 2.053 2.59 3.441 4.751 3.441h6.462v31.083l18.059-3.588v-27.496h-6.462z" fill="#6377e7"/></g><circle cx="128" cy="31.226" fill="#9e9e9e" r="16.125"/><path d="m156.875 82.919h-57.75v-9.996c0-14.124 11.449-25.573 25.573-25.573h6.604c14.124 0 25.573 11.449 25.573 25.573z" fill="#f8af23"/><circle cx="128" cy="207.636" fill="#f8af23" r="21.717"/><g><g><path d="m24.437 143.51v-23.258c0-.523.424-.947.947-.947h25.372c.523 0 .947.424.947.947v23.258c0 .523.424.947.947.947h4.568c.844 0 1.267 1.02.67 1.617l-19.148 19.149c-.37.37-.97.37-1.34 0l-19.148-19.148c-.597-.597-.174-1.617.67-1.617h4.568c.523-.001.947-.425.947-.948z" fill="#f46275"/><g><path d="m36.98 144.457h4.568c.523 0 .947-.424.947-.947v-23.258c0-.523.424-.947.947-.947h-18.058c-.523 0-.947.424-.947.947v23.258c0 .523-.424.947-.947.947h-4.568c-.844 0-1.267 1.02-.67 1.617l19.148 19.149c.37.37.97.37 1.34 0l8.359-8.359-10.789-10.789c-.596-.598-.174-1.618.67-1.618z" fill="#f43075"/></g></g><g><path d="m231.563 143.51v-23.258c0-.523-.424-.947-.947-.947h-25.372c-.523 0-.947.424-.947.947v23.258c0 .523-.424.947-.947.947h-4.568c-.844 0-1.267 1.02-.67 1.617l19.148 19.148c.37.37.97.37 1.34 0l19.148-19.148c.597-.597.174-1.617-.67-1.617h-4.568c-.522 0-.947-.424-.947-.947z" fill="#f46275"/><g><path d="m219.02 144.457h-4.568c-.523 0-.947-.424-.947-.947v-23.258c0-.523-.424-.947-.947-.947h18.059c.523 0 .947.424.947.947v23.258c0 .523.424.947.947.947h4.568c.844 0 1.267 1.02.67 1.617l-19.149 19.149c-.37.37-.97.37-1.34 0l-8.359-8.359 10.789-10.789c.596-.598.174-1.618-.67-1.618z" fill="#f48875"/></g></g></g></g><g fill="#3f3679"><g><path d="m136.832 202.324c.606 0 1.13-.221 1.572-.662s.662-.965.662-1.572c0-.589-.221-1.1-.662-1.533-.442-.433-.966-.649-1.572-.649h-6.702v-5.325c0-.606-.212-1.121-.636-1.546-.425-.424-.931-.636-1.52-.636-.693 0-1.243.217-1.65.649-.407.433-.611.944-.611 1.533v5.325h-6.546c-.606 0-1.121.212-1.545.636-.425.425-.637.94-.637 1.546v7.533c0 .623.212 1.143.637 1.559.424.415.939.623 1.545.623h15.378v3.143h-15.43c-.606 0-1.121.212-1.546.636-.424.425-.636.94-.636 1.546s.217 1.121.65 1.546c.433.424.943.636 1.532.636h6.598v5.377c0 .606.217 1.121.65 1.546s.961.636 1.584.636c.589 0 1.1-.212 1.533-.636s.649-.939.649-1.546v-5.325h6.65c.606 0 1.13-.217 1.572-.65s.663-.943.663-1.533v-7.559c0-.589-.221-1.099-.663-1.533-.442-.433-.966-.65-1.572-.65h-15.378v-3.117h15.431z"/><path d="m27.7 239.399h-18.172c-.829 0-1.5.671-1.5 1.5s.671 1.5 1.5 1.5h18.172c.829 0 1.5-.671 1.5-1.5s-.671-1.5-1.5-1.5z"/><path d="m246.472 239.399h-18.172c-.829 0-1.5.671-1.5 1.5s.671 1.5 1.5 1.5h18.172c.829 0 1.5-.671 1.5-1.5s-.671-1.5-1.5-1.5z"/><path d="m213.789 239.399h-171.578c-.829 0-1.5.671-1.5 1.5s.671 1.5 1.5 1.5h171.577c.829 0 1.5-.671 1.5-1.5s-.671-1.5-1.499-1.5z"/><path d="m9.528 230.854h7.803c.829 0 1.5-.671 1.5-1.5s-.671-1.5-1.5-1.5h-7.803c-.829 0-1.5.671-1.5 1.5s.671 1.5 1.5 1.5z"/><path d="m237.169 229.354c0 .829.671 1.5 1.5 1.5h7.803c.829 0 1.5-.671 1.5-1.5s-.671-1.5-1.5-1.5h-7.803c-.829 0-1.5.671-1.5 1.5z"/><path d="m36.34 166.283c.477.477 1.104.716 1.73.716.627 0 1.253-.239 1.73-.716l19.148-19.148c.703-.702.911-1.749.531-2.667s-1.268-1.511-2.261-1.511h-4.015v-22.706c0-1.35-1.098-2.447-2.447-2.447h-25.372c-1.35 0-2.447 1.098-2.447 2.447v22.706h-4.015c-.994 0-1.881.593-2.261 1.511s-.172 1.965.531 2.667zm-12.851-20.326c1.35 0 2.447-1.098 2.447-2.447v-22.706h24.267v22.706c0 1.35 1.098 2.447 2.447 2.447h3.233l-17.813 17.814-17.814-17.814z"/><path d="m202.796 120.251v22.706h-4.015c-.994 0-1.881.593-2.261 1.511s-.172 1.965.531 2.667l19.148 19.148c.477.477 1.104.716 1.73.716s1.253-.239 1.73-.716l19.148-19.148c.703-.702.911-1.749.531-2.667s-1.268-1.511-2.261-1.511h-4.015v-22.706c0-1.35-1.098-2.447-2.447-2.447h-25.373c-1.348 0-2.446 1.098-2.446 2.447zm3 23.259v-22.706h24.267v22.706c0 1.35 1.098 2.447 2.447 2.447h3.233l-17.814 17.814-17.814-17.814h3.233c1.351 0 2.448-1.098 2.448-2.447z"/><path d="m113.5 91.419h10.625c.829 0 1.5-.671 1.5-1.5s-.671-1.5-1.5-1.5h-10.625c-.829 0-1.5.671-1.5 1.5s.671 1.5 1.5 1.5z"/></g><g><path d="m228.3 227.854h-88.906c7.05-3.989 11.823-11.554 11.823-20.217 0-5.185-1.709-9.977-4.593-13.846l12.918-2.566c.702-.139 1.208-.755 1.208-1.471v-17.167h4.961c2.816 0 5.298-1.798 6.176-4.473l22.865-69.693h1.016c4.687 0 8.5-3.813 8.5-8.5s-3.813-8.5-8.5-8.5h-.193v-5.751c0-12.535-8.565-23.105-20.15-26.172 4.996-2.809 8.383-8.154 8.383-14.282 0-9.032-7.349-16.381-16.381-16.381s-16.381 7.349-16.381 16.381c0 6.125 3.385 11.468 8.377 14.278-3.218.846-6.245 2.299-8.986 4.3-3.649-3.65-8.333-6.263-13.567-7.362 5.226-3.062 8.753-8.722 8.753-15.204 0-9.718-7.907-17.625-17.625-17.625s-17.625 7.907-17.625 17.625c0 6.482 3.527 12.142 8.753 15.204-5.234 1.099-9.918 3.712-13.567 7.362-2.742-2.001-5.77-3.453-8.988-4.299 4.993-2.81 8.378-8.153 8.378-14.279 0-9.032-7.349-16.381-16.381-16.381s-16.378 7.347-16.378 16.379c0 6.128 3.388 11.473 8.383 14.282-11.584 3.067-20.15 13.637-20.15 26.172v5.751h-.193c-4.687 0-8.5 3.813-8.5 8.5s3.813 8.5 8.5 8.5h1.016l22.865 69.693c.878 2.675 3.36 4.473 6.176 4.473h4.961v29.583c0 .449.201.875.548 1.159.271.222.607.341.952.341.097 0 .195-.009.292-.029l8.445-1.678c-.458 1.817-.704 3.717-.704 5.673 0 8.663 4.772 16.228 11.823 20.217h-88.904c-.829 0-1.5.671-1.5 1.5s.671 1.5 1.5 1.5h200.6c.829 0 1.5-.671 1.5-1.5s-.672-1.497-1.5-1.497zm-74.252-192.64c0-7.378 6.002-13.381 13.381-13.381s13.381 6.002 13.381 13.381-6.002 13.381-13.381 13.381-13.381-6.002-13.381-13.381zm12.307 16.381h2.148c13.274 0 24.073 10.799 24.073 24.073v5.751h-5.652v-10.497c0-.829-.671-1.5-1.5-1.5s-1.5.671-1.5 1.5v10.497h-25.549v-8.496c0-6.38-2.224-12.248-5.931-16.881 4.079-2.901 8.858-4.447 13.911-4.447zm-52.98-20.369c0-8.064 6.561-14.625 14.625-14.625s14.625 6.561 14.625 14.625-6.561 14.625-14.625 14.625-14.625-6.56-14.625-14.625zm11.323 17.625h6.604c13.274 0 24.073 10.799 24.073 24.073v8.496h-6.375v-11.5c0-.829-.671-1.5-1.5-1.5s-1.5.671-1.5 1.5v11.5h-36v-11.5c0-.829-.671-1.5-1.5-1.5s-1.5.671-1.5 1.5v11.5h-6.375v-8.496c0-13.274 10.799-24.073 24.073-24.073zm-49.508-13.637c0-7.378 6.002-13.381 13.381-13.381s13.381 6.002 13.381 13.381-6.002 13.381-13.381 13.381-13.381-6.002-13.381-13.381zm-11.766 40.454c0-13.274 10.799-24.073 24.073-24.073h2.148c5.051 0 9.832 1.546 13.911 4.448-3.707 4.633-5.931 10.5-5.931 16.881v8.496h-25.549v-10.498c0-.829-.671-1.5-1.5-1.5s-1.5.671-1.5 1.5v10.497h-5.652zm-3.193 19.751c-2.512 0-4.632-1.695-5.287-4h49.139c.829 0 1.5-.671 1.5-1.5s-.671-1.5-1.5-1.5h-49.139c.655-2.305 2.775-4 5.287-4h38.894 57.75 38.894c3.033 0 5.5 2.467 5.5 5.5s-2.467 5.5-5.5 5.5h-2.103-131.333zm38.019 104.923v-27.756h28.417c.829 0 1.5-.671 1.5-1.5s-.671-1.5-1.5-1.5h-29.917-6.461c-1.517 0-2.853-.968-3.326-2.409l-22.559-68.758h127.191l-22.559 68.758c-.473 1.441-1.809 2.409-3.326 2.409h-6.461c-.829 0-1.5.671-1.5 1.5v17.436l-13.389 2.66c-4.2-4.176-9.984-6.762-16.361-6.762-9.632 0-17.91 5.896-21.421 14.268zm9.533 7.294c0-11.147 9.069-20.217 20.217-20.217s20.217 9.069 20.217 20.217-9.069 20.217-20.217 20.217-20.217-9.069-20.217-20.217z"/><path d="m134.667 172.586h6.525c.829 0 1.5-.671 1.5-1.5s-.671-1.5-1.5-1.5h-6.525c-.829 0-1.5.671-1.5 1.5s.671 1.5 1.5 1.5z"/></g></g></g></svg>