<svg id="flat" height="512" viewBox="0 0 512 512" width="512" xmlns="http://www.w3.org/2000/svg"><rect fill="#ffb401" height="136" rx="16" width="208" x="280" y="24"/><path d="m280 56h208v48h-208z" fill="#718799"/><path d="m144 256v-80l40 32v-56l-31.23475-24.9878a32 32 0 0 0 -19.99025-7.0122h-76.775a32 32 0 0 0 -32 32v104z" fill="#548aff"/><path d="m112 104v28a20.26518 20.26518 0 0 1 -.3999 4 20.00258 20.00258 0 0 1 -39.6001-4v-28z" fill="#ffceb6"/><path d="m112 104v28a20.26518 20.26518 0 0 1 -.3999 4h-11.6001a19.99443 19.99443 0 0 1 -20-20v-12z" fill="#ffbfa1"/><rect fill="#4976f2" height="32.859" rx="8" transform="matrix(.588 -.809 .809 .588 -151.968 139.802)" width="15.999" x="53.287" y="202.688"/><rect fill="#4976f2" height="28.742" rx="8" transform="matrix(.64 -.768 .768 .64 -109.517 136.575)" width="15.999" x="83.04" y="170.829"/><path d="m64 448 40 24v16h-80v-24z" fill="#d1e4ff"/><path d="m144 448 40 24v16h-80v-24z" fill="#bed3f7"/><path d="m104 464-16-152-24 136-40 16v-208h120v192z" fill="#62798c"/><rect fill="#ffc431" height="136" rx="16" width="208" x="184" y="96"/><path d="m216 128h40v40h-40z" fill="#ffe28f"/><path d="m264 192h24v16h-24z" fill="#ffb401"/><path d="m304 192h24v16h-24z" fill="#ffb401"/><path d="m344 192h24v16h-24z" fill="#ffb401"/><path d="m320 128-8 24h40l8-24z" fill="#ffe28f"/><path d="m320 320h-48a8.00039 8.00039 0 0 1 -8-8v-48a8.00039 8.00039 0 0 1 8-8h24v16h-16v32h32v-40h16v48a8.00039 8.00039 0 0 1 -8 8z" fill="#d1e4ff"/><path d="m279.716 267.999h56.569v16.001h-56.569z" fill="#f5714f" transform="matrix(.707 -.707 .707 .707 -104.95 298.627)"/><g fill="#d1e4ff"><path d="m344 264h24v16h-24z"/><path d="m384 264h96v16h-96z"/><path d="m344 296h72v16h-72z"/><path d="m432 296h16v16h-16z"/><path d="m320 408h-48a8.00039 8.00039 0 0 1 -8-8v-48a8.00039 8.00039 0 0 1 8-8h24v16h-16v32h32v-40h16v48a8.00039 8.00039 0 0 1 -8 8z"/></g><path d="m279.716 355.999h56.569v16.001h-56.569z" fill="#f5714f" transform="matrix(.707 -.707 .707 .707 -167.176 324.402)"/><path d="m344 352h64v16h-64z" fill="#d1e4ff"/><path d="m424 352h56v16h-56z" fill="#d1e4ff"/><path d="m344 384h48v16h-48z" fill="#d1e4ff"/><path d="m408 384h32v16h-32z" fill="#d1e4ff"/><path d="m320 496h-48a8.00039 8.00039 0 0 1 -8-8v-48a8.00039 8.00039 0 0 1 8-8h24v16h-16v32h32v-40h16v48a8.00039 8.00039 0 0 1 -8 8z" fill="#d1e4ff"/><path d="m279.716 443.999h56.569v16.001h-56.569z" fill="#f5714f" transform="matrix(.707 -.707 .707 .707 -229.401 350.177)"/><path d="m344 440h24v16h-24z" fill="#d1e4ff"/><path d="m384 440h56v16h-56z" fill="#d1e4ff"/><path d="m344 472h72v16h-72z" fill="#d1e4ff"/><path d="m432 472h48v16h-48z" fill="#d1e4ff"/><path d="m96 128a24 24 0 0 1 -24-24v-8l24-16h24v24a24 24 0 0 1 -24 24z" fill="#ffceb6"/><path d="m120 80 3.02944-3.02944a16.97054 16.97054 0 0 0 4.97056-12 16.97054 16.97054 0 0 0 -16.97055-16.97056h-15.02945a24 24 0 0 0 -24 24v24l24-16z" fill="#c47220"/><path d="m74.57472 228.78161 27.50528-34.38161 25.92 21.6h72l14.34315-14.34315a5.65684 5.65684 0 0 1 4-1.65685 5.65685 5.65685 0 0 1 5.65685 5.65685v10.34315h24v16a24 24 0 0 1 -24 24h-101.59412a31.99993 31.99993 0 0 1 -18.82149-6.12045l-29.00969-21.09795z" fill="#ffceb6"/></svg>